G75*
%MOIN*%
%OFA0B0*%
%FSLAX25Y25*%
%IPPOS*%
%LPD*%
%AMOC8*
5,1,8,0,0,1.08239X$1,22.5*
%
%ADD10C,0.00000*%
%ADD11C,0.00512*%
%ADD12C,0.00600*%
%ADD13R,0.10630X0.06299*%
%ADD14R,0.04331X0.03937*%
%ADD15R,0.03937X0.04331*%
%ADD16C,0.01181*%
%ADD17R,0.06299X0.07087*%
%ADD18R,0.02362X0.08661*%
%ADD19C,0.06400*%
%ADD20C,0.07400*%
%ADD21R,0.07087X0.07087*%
%ADD22C,0.07087*%
%ADD23R,0.05512X0.01378*%
%ADD24R,0.07480X0.07087*%
%ADD25R,0.07480X0.07480*%
%ADD26R,0.18110X0.03937*%
%ADD27R,0.13386X0.06299*%
%ADD28R,0.05906X0.14173*%
%ADD29R,0.03543X0.03150*%
%ADD30R,0.03150X0.03543*%
%ADD31R,0.04724X0.02362*%
%ADD32R,0.07480X0.05512*%
%ADD33R,0.05512X0.07087*%
%ADD34R,0.05906X0.02756*%
%ADD35R,0.00984X0.01969*%
%ADD36R,0.09449X0.03307*%
%ADD37R,0.05118X0.07480*%
%ADD38R,0.07087X0.02756*%
%ADD39R,0.00984X0.02756*%
%ADD40R,0.02756X0.00984*%
%ADD41R,0.20472X0.12598*%
%ADD42R,0.00886X0.01673*%
%ADD43R,0.05906X0.01102*%
%ADD44R,0.01102X0.05906*%
%ADD45R,0.11811X0.04724*%
%ADD46R,0.00787X0.03346*%
%ADD47R,0.03346X0.00787*%
%ADD48R,0.10433X0.10433*%
%ADD49R,0.16000X0.06000*%
%ADD50R,0.16000X0.05000*%
%ADD51R,0.11024X0.09449*%
%ADD52R,0.04134X0.02559*%
%ADD53R,0.03937X0.07874*%
%ADD54C,0.01000*%
%ADD55C,0.00800*%
%ADD56OC8,0.03569*%
%ADD57C,0.01200*%
%ADD58OC8,0.05906*%
%ADD59C,0.05000*%
%ADD60C,0.02400*%
%ADD61C,0.04000*%
%ADD62C,0.01600*%
%ADD63OC8,0.05315*%
%ADD64C,0.03200*%
%ADD65OC8,0.18750*%
D10*
X0001256Y0009875D02*
X0001256Y0188103D01*
X0489957Y0188103D01*
X0489957Y0009875D01*
X0001256Y0009875D01*
X0437068Y0150813D02*
X0437070Y0150939D01*
X0437076Y0151065D01*
X0437086Y0151191D01*
X0437100Y0151317D01*
X0437118Y0151442D01*
X0437140Y0151566D01*
X0437165Y0151690D01*
X0437195Y0151813D01*
X0437228Y0151934D01*
X0437266Y0152055D01*
X0437307Y0152174D01*
X0437352Y0152293D01*
X0437400Y0152409D01*
X0437452Y0152524D01*
X0437508Y0152637D01*
X0437568Y0152749D01*
X0437631Y0152858D01*
X0437697Y0152966D01*
X0437766Y0153071D01*
X0437839Y0153174D01*
X0437916Y0153275D01*
X0437995Y0153373D01*
X0438077Y0153469D01*
X0438163Y0153562D01*
X0438251Y0153653D01*
X0438342Y0153740D01*
X0438436Y0153825D01*
X0438532Y0153906D01*
X0438631Y0153985D01*
X0438732Y0154060D01*
X0438836Y0154132D01*
X0438942Y0154201D01*
X0439050Y0154267D01*
X0439160Y0154329D01*
X0439272Y0154387D01*
X0439385Y0154442D01*
X0439501Y0154493D01*
X0439618Y0154541D01*
X0439736Y0154585D01*
X0439856Y0154625D01*
X0439977Y0154661D01*
X0440099Y0154694D01*
X0440222Y0154723D01*
X0440346Y0154747D01*
X0440470Y0154768D01*
X0440595Y0154785D01*
X0440721Y0154798D01*
X0440847Y0154807D01*
X0440973Y0154812D01*
X0441100Y0154813D01*
X0441226Y0154810D01*
X0441352Y0154803D01*
X0441478Y0154792D01*
X0441603Y0154777D01*
X0441728Y0154758D01*
X0441852Y0154735D01*
X0441976Y0154709D01*
X0442098Y0154678D01*
X0442220Y0154644D01*
X0442340Y0154605D01*
X0442459Y0154563D01*
X0442577Y0154518D01*
X0442693Y0154468D01*
X0442808Y0154415D01*
X0442920Y0154358D01*
X0443031Y0154298D01*
X0443140Y0154234D01*
X0443247Y0154167D01*
X0443352Y0154097D01*
X0443455Y0154023D01*
X0443555Y0153946D01*
X0443653Y0153866D01*
X0443748Y0153783D01*
X0443840Y0153697D01*
X0443930Y0153608D01*
X0444017Y0153516D01*
X0444100Y0153422D01*
X0444181Y0153325D01*
X0444259Y0153225D01*
X0444334Y0153123D01*
X0444405Y0153019D01*
X0444473Y0152912D01*
X0444537Y0152804D01*
X0444598Y0152693D01*
X0444656Y0152581D01*
X0444710Y0152467D01*
X0444760Y0152351D01*
X0444807Y0152234D01*
X0444850Y0152115D01*
X0444889Y0151995D01*
X0444925Y0151874D01*
X0444956Y0151751D01*
X0444984Y0151628D01*
X0445008Y0151504D01*
X0445028Y0151379D01*
X0445044Y0151254D01*
X0445056Y0151128D01*
X0445064Y0151002D01*
X0445068Y0150876D01*
X0445068Y0150750D01*
X0445064Y0150624D01*
X0445056Y0150498D01*
X0445044Y0150372D01*
X0445028Y0150247D01*
X0445008Y0150122D01*
X0444984Y0149998D01*
X0444956Y0149875D01*
X0444925Y0149752D01*
X0444889Y0149631D01*
X0444850Y0149511D01*
X0444807Y0149392D01*
X0444760Y0149275D01*
X0444710Y0149159D01*
X0444656Y0149045D01*
X0444598Y0148933D01*
X0444537Y0148822D01*
X0444473Y0148714D01*
X0444405Y0148607D01*
X0444334Y0148503D01*
X0444259Y0148401D01*
X0444181Y0148301D01*
X0444100Y0148204D01*
X0444017Y0148110D01*
X0443930Y0148018D01*
X0443840Y0147929D01*
X0443748Y0147843D01*
X0443653Y0147760D01*
X0443555Y0147680D01*
X0443455Y0147603D01*
X0443352Y0147529D01*
X0443247Y0147459D01*
X0443140Y0147392D01*
X0443031Y0147328D01*
X0442920Y0147268D01*
X0442808Y0147211D01*
X0442693Y0147158D01*
X0442577Y0147108D01*
X0442459Y0147063D01*
X0442340Y0147021D01*
X0442220Y0146982D01*
X0442098Y0146948D01*
X0441976Y0146917D01*
X0441852Y0146891D01*
X0441728Y0146868D01*
X0441603Y0146849D01*
X0441478Y0146834D01*
X0441352Y0146823D01*
X0441226Y0146816D01*
X0441100Y0146813D01*
X0440973Y0146814D01*
X0440847Y0146819D01*
X0440721Y0146828D01*
X0440595Y0146841D01*
X0440470Y0146858D01*
X0440346Y0146879D01*
X0440222Y0146903D01*
X0440099Y0146932D01*
X0439977Y0146965D01*
X0439856Y0147001D01*
X0439736Y0147041D01*
X0439618Y0147085D01*
X0439501Y0147133D01*
X0439385Y0147184D01*
X0439272Y0147239D01*
X0439160Y0147297D01*
X0439050Y0147359D01*
X0438942Y0147425D01*
X0438836Y0147494D01*
X0438732Y0147566D01*
X0438631Y0147641D01*
X0438532Y0147720D01*
X0438436Y0147801D01*
X0438342Y0147886D01*
X0438251Y0147973D01*
X0438163Y0148064D01*
X0438077Y0148157D01*
X0437995Y0148253D01*
X0437916Y0148351D01*
X0437839Y0148452D01*
X0437766Y0148555D01*
X0437697Y0148660D01*
X0437631Y0148768D01*
X0437568Y0148877D01*
X0437508Y0148989D01*
X0437452Y0149102D01*
X0437400Y0149217D01*
X0437352Y0149333D01*
X0437307Y0149452D01*
X0437266Y0149571D01*
X0437228Y0149692D01*
X0437195Y0149813D01*
X0437165Y0149936D01*
X0437140Y0150060D01*
X0437118Y0150184D01*
X0437100Y0150309D01*
X0437086Y0150435D01*
X0437076Y0150561D01*
X0437070Y0150687D01*
X0437068Y0150813D01*
X0455068Y0150813D02*
X0455070Y0150939D01*
X0455076Y0151065D01*
X0455086Y0151191D01*
X0455100Y0151317D01*
X0455118Y0151442D01*
X0455140Y0151566D01*
X0455165Y0151690D01*
X0455195Y0151813D01*
X0455228Y0151934D01*
X0455266Y0152055D01*
X0455307Y0152174D01*
X0455352Y0152293D01*
X0455400Y0152409D01*
X0455452Y0152524D01*
X0455508Y0152637D01*
X0455568Y0152749D01*
X0455631Y0152858D01*
X0455697Y0152966D01*
X0455766Y0153071D01*
X0455839Y0153174D01*
X0455916Y0153275D01*
X0455995Y0153373D01*
X0456077Y0153469D01*
X0456163Y0153562D01*
X0456251Y0153653D01*
X0456342Y0153740D01*
X0456436Y0153825D01*
X0456532Y0153906D01*
X0456631Y0153985D01*
X0456732Y0154060D01*
X0456836Y0154132D01*
X0456942Y0154201D01*
X0457050Y0154267D01*
X0457160Y0154329D01*
X0457272Y0154387D01*
X0457385Y0154442D01*
X0457501Y0154493D01*
X0457618Y0154541D01*
X0457736Y0154585D01*
X0457856Y0154625D01*
X0457977Y0154661D01*
X0458099Y0154694D01*
X0458222Y0154723D01*
X0458346Y0154747D01*
X0458470Y0154768D01*
X0458595Y0154785D01*
X0458721Y0154798D01*
X0458847Y0154807D01*
X0458973Y0154812D01*
X0459100Y0154813D01*
X0459226Y0154810D01*
X0459352Y0154803D01*
X0459478Y0154792D01*
X0459603Y0154777D01*
X0459728Y0154758D01*
X0459852Y0154735D01*
X0459976Y0154709D01*
X0460098Y0154678D01*
X0460220Y0154644D01*
X0460340Y0154605D01*
X0460459Y0154563D01*
X0460577Y0154518D01*
X0460693Y0154468D01*
X0460808Y0154415D01*
X0460920Y0154358D01*
X0461031Y0154298D01*
X0461140Y0154234D01*
X0461247Y0154167D01*
X0461352Y0154097D01*
X0461455Y0154023D01*
X0461555Y0153946D01*
X0461653Y0153866D01*
X0461748Y0153783D01*
X0461840Y0153697D01*
X0461930Y0153608D01*
X0462017Y0153516D01*
X0462100Y0153422D01*
X0462181Y0153325D01*
X0462259Y0153225D01*
X0462334Y0153123D01*
X0462405Y0153019D01*
X0462473Y0152912D01*
X0462537Y0152804D01*
X0462598Y0152693D01*
X0462656Y0152581D01*
X0462710Y0152467D01*
X0462760Y0152351D01*
X0462807Y0152234D01*
X0462850Y0152115D01*
X0462889Y0151995D01*
X0462925Y0151874D01*
X0462956Y0151751D01*
X0462984Y0151628D01*
X0463008Y0151504D01*
X0463028Y0151379D01*
X0463044Y0151254D01*
X0463056Y0151128D01*
X0463064Y0151002D01*
X0463068Y0150876D01*
X0463068Y0150750D01*
X0463064Y0150624D01*
X0463056Y0150498D01*
X0463044Y0150372D01*
X0463028Y0150247D01*
X0463008Y0150122D01*
X0462984Y0149998D01*
X0462956Y0149875D01*
X0462925Y0149752D01*
X0462889Y0149631D01*
X0462850Y0149511D01*
X0462807Y0149392D01*
X0462760Y0149275D01*
X0462710Y0149159D01*
X0462656Y0149045D01*
X0462598Y0148933D01*
X0462537Y0148822D01*
X0462473Y0148714D01*
X0462405Y0148607D01*
X0462334Y0148503D01*
X0462259Y0148401D01*
X0462181Y0148301D01*
X0462100Y0148204D01*
X0462017Y0148110D01*
X0461930Y0148018D01*
X0461840Y0147929D01*
X0461748Y0147843D01*
X0461653Y0147760D01*
X0461555Y0147680D01*
X0461455Y0147603D01*
X0461352Y0147529D01*
X0461247Y0147459D01*
X0461140Y0147392D01*
X0461031Y0147328D01*
X0460920Y0147268D01*
X0460808Y0147211D01*
X0460693Y0147158D01*
X0460577Y0147108D01*
X0460459Y0147063D01*
X0460340Y0147021D01*
X0460220Y0146982D01*
X0460098Y0146948D01*
X0459976Y0146917D01*
X0459852Y0146891D01*
X0459728Y0146868D01*
X0459603Y0146849D01*
X0459478Y0146834D01*
X0459352Y0146823D01*
X0459226Y0146816D01*
X0459100Y0146813D01*
X0458973Y0146814D01*
X0458847Y0146819D01*
X0458721Y0146828D01*
X0458595Y0146841D01*
X0458470Y0146858D01*
X0458346Y0146879D01*
X0458222Y0146903D01*
X0458099Y0146932D01*
X0457977Y0146965D01*
X0457856Y0147001D01*
X0457736Y0147041D01*
X0457618Y0147085D01*
X0457501Y0147133D01*
X0457385Y0147184D01*
X0457272Y0147239D01*
X0457160Y0147297D01*
X0457050Y0147359D01*
X0456942Y0147425D01*
X0456836Y0147494D01*
X0456732Y0147566D01*
X0456631Y0147641D01*
X0456532Y0147720D01*
X0456436Y0147801D01*
X0456342Y0147886D01*
X0456251Y0147973D01*
X0456163Y0148064D01*
X0456077Y0148157D01*
X0455995Y0148253D01*
X0455916Y0148351D01*
X0455839Y0148452D01*
X0455766Y0148555D01*
X0455697Y0148660D01*
X0455631Y0148768D01*
X0455568Y0148877D01*
X0455508Y0148989D01*
X0455452Y0149102D01*
X0455400Y0149217D01*
X0455352Y0149333D01*
X0455307Y0149452D01*
X0455266Y0149571D01*
X0455228Y0149692D01*
X0455195Y0149813D01*
X0455165Y0149936D01*
X0455140Y0150060D01*
X0455118Y0150184D01*
X0455100Y0150309D01*
X0455086Y0150435D01*
X0455076Y0150561D01*
X0455070Y0150687D01*
X0455068Y0150813D01*
D11*
X0489957Y0184353D02*
X0489957Y0233177D01*
X0489701Y0225500D02*
X0479720Y0226524D01*
X0479720Y0226757D02*
X0479720Y0224243D01*
X0489701Y0225500D01*
X0479720Y0224476D01*
X0479720Y0224988D02*
X0489701Y0225500D01*
X0479720Y0226012D01*
X0479720Y0226757D02*
X0489701Y0225500D01*
X0001512Y0225500D01*
X0011492Y0224476D01*
X0011492Y0224243D02*
X0001512Y0225500D01*
X0011492Y0226524D01*
X0011492Y0226757D02*
X0011492Y0224243D01*
X0011492Y0224988D02*
X0001512Y0225500D01*
X0011492Y0226012D01*
X0011492Y0226757D02*
X0001512Y0225500D01*
X0001256Y0233177D02*
X0001256Y0184353D01*
X0489957Y0186228D02*
X0568933Y0186228D01*
X0561256Y0185972D02*
X0562280Y0175992D01*
X0562513Y0175992D02*
X0561256Y0185972D01*
X0560232Y0175992D01*
X0559999Y0175992D02*
X0562513Y0175992D01*
X0561768Y0175992D02*
X0561256Y0185972D01*
X0560744Y0175992D01*
X0559999Y0175992D02*
X0561256Y0185972D01*
X0561256Y0010131D01*
X0562280Y0020111D01*
X0562513Y0020111D02*
X0561256Y0010131D01*
X0560232Y0020111D01*
X0559999Y0020111D02*
X0562513Y0020111D01*
X0561768Y0020111D02*
X0561256Y0010131D01*
X0560744Y0020111D01*
X0559999Y0020111D02*
X0561256Y0010131D01*
X0568933Y0009875D02*
X0489957Y0009875D01*
D12*
X0554424Y0088600D02*
X0552289Y0090735D01*
X0558694Y0090735D01*
X0558694Y0088600D02*
X0558694Y0092870D01*
X0558694Y0095045D02*
X0558694Y0096113D01*
X0557627Y0096113D01*
X0557627Y0095045D01*
X0558694Y0095045D01*
X0558694Y0098268D02*
X0557627Y0098268D01*
X0553356Y0102539D01*
X0552289Y0102539D01*
X0552289Y0098268D01*
X0555491Y0104714D02*
X0555491Y0107916D01*
X0556559Y0108984D01*
X0557627Y0108984D01*
X0558694Y0107916D01*
X0558694Y0105781D01*
X0557627Y0104714D01*
X0555491Y0104714D01*
X0553356Y0106849D01*
X0552289Y0108984D01*
X0256539Y0229129D02*
X0255471Y0228062D01*
X0253336Y0228062D01*
X0252268Y0229129D01*
X0250093Y0229129D02*
X0249026Y0228062D01*
X0246890Y0228062D01*
X0245823Y0229129D01*
X0245823Y0230197D01*
X0246890Y0231265D01*
X0249026Y0231265D01*
X0250093Y0230197D01*
X0250093Y0229129D01*
X0249026Y0231265D02*
X0250093Y0232332D01*
X0250093Y0233400D01*
X0249026Y0234467D01*
X0246890Y0234467D01*
X0245823Y0233400D01*
X0245823Y0232332D01*
X0246890Y0231265D01*
X0243668Y0229129D02*
X0243668Y0228062D01*
X0242600Y0228062D01*
X0242600Y0229129D01*
X0243668Y0229129D01*
X0240425Y0231265D02*
X0236155Y0231265D01*
X0239357Y0234467D01*
X0239357Y0228062D01*
X0252268Y0232332D02*
X0252268Y0233400D01*
X0253336Y0234467D01*
X0255471Y0234467D01*
X0256539Y0233400D01*
X0256539Y0229129D01*
X0256539Y0231265D02*
X0253336Y0231265D01*
X0252268Y0232332D01*
D13*
X0351256Y0124762D03*
X0351256Y0113738D03*
X0386256Y0113738D03*
X0386256Y0124762D03*
D14*
X0373756Y0137154D03*
X0373756Y0143846D03*
X0407506Y0143846D03*
X0407506Y0137154D03*
X0411256Y0125096D03*
X0420006Y0125096D03*
X0420006Y0118404D03*
X0411256Y0118404D03*
X0402102Y0111750D03*
X0395409Y0111750D03*
X0367102Y0111750D03*
X0360409Y0111750D03*
X0340006Y0103846D03*
X0340006Y0097154D03*
X0366256Y0078846D03*
X0376256Y0078846D03*
X0376256Y0072154D03*
X0366256Y0072154D03*
X0296881Y0075279D03*
X0288131Y0075279D03*
X0288131Y0081971D03*
X0296881Y0081971D03*
X0207102Y0118000D03*
X0200409Y0118000D03*
X0231034Y0140500D03*
X0237727Y0140500D03*
X0237727Y0147375D03*
X0231034Y0147375D03*
X0207102Y0143000D03*
X0200409Y0143000D03*
X0102506Y0126971D03*
X0092506Y0126971D03*
X0092506Y0120279D03*
X0102506Y0120279D03*
X0086256Y0114471D03*
X0086256Y0107779D03*
X0072506Y0119654D03*
X0061256Y0119654D03*
X0061256Y0126346D03*
X0072506Y0126346D03*
X0060006Y0142154D03*
X0060006Y0148846D03*
X0056256Y0159029D03*
X0056256Y0165721D03*
X0310631Y0135409D03*
X0310631Y0128716D03*
X0319381Y0128716D03*
X0328131Y0128716D03*
X0328131Y0135409D03*
X0319381Y0135409D03*
X0338756Y0140904D03*
X0338756Y0147596D03*
X0431659Y0017375D03*
X0438352Y0017375D03*
D15*
X0285227Y0104250D03*
X0278534Y0104250D03*
X0270852Y0126125D03*
X0264159Y0126125D03*
X0216881Y0114471D03*
X0216881Y0107779D03*
X0140006Y0073846D03*
X0131256Y0073846D03*
X0121256Y0073846D03*
X0112506Y0073846D03*
X0112506Y0067154D03*
X0103756Y0067596D03*
X0103756Y0060904D03*
X0121256Y0067154D03*
X0131256Y0067154D03*
X0140006Y0067154D03*
X0148756Y0066971D03*
X0148756Y0060279D03*
X0039602Y0016125D03*
X0032909Y0016125D03*
X0032909Y0120500D03*
X0039602Y0120500D03*
X0039602Y0130500D03*
X0032909Y0130500D03*
X0067284Y0138625D03*
X0073977Y0138625D03*
X0050631Y0147154D03*
X0050631Y0153846D03*
X0110006Y0155721D03*
X0110006Y0149029D03*
X0116659Y0148000D03*
X0123352Y0148000D03*
X0129159Y0148000D03*
X0135852Y0148000D03*
X0133352Y0136750D03*
X0126659Y0136750D03*
X0120852Y0136750D03*
X0114159Y0136750D03*
D16*
X0309253Y0124706D02*
X0312009Y0124706D01*
X0312009Y0121950D01*
X0309253Y0121950D01*
X0309253Y0124706D01*
X0309253Y0123130D02*
X0312009Y0123130D01*
X0312009Y0124310D02*
X0309253Y0124310D01*
X0318003Y0124706D02*
X0320759Y0124706D01*
X0320759Y0121950D01*
X0318003Y0121950D01*
X0318003Y0124706D01*
X0318003Y0123130D02*
X0320759Y0123130D01*
X0320759Y0124310D02*
X0318003Y0124310D01*
X0326753Y0124706D02*
X0329509Y0124706D01*
X0329509Y0121950D01*
X0326753Y0121950D01*
X0326753Y0124706D01*
X0326753Y0123130D02*
X0329509Y0123130D01*
X0329509Y0124310D02*
X0326753Y0124310D01*
X0326753Y0117800D02*
X0329509Y0117800D01*
X0329509Y0115044D01*
X0326753Y0115044D01*
X0326753Y0117800D01*
X0326753Y0116224D02*
X0329509Y0116224D01*
X0329509Y0117404D02*
X0326753Y0117404D01*
X0320759Y0117800D02*
X0318003Y0117800D01*
X0320759Y0117800D02*
X0320759Y0115044D01*
X0318003Y0115044D01*
X0318003Y0117800D01*
X0318003Y0116224D02*
X0320759Y0116224D01*
X0320759Y0117404D02*
X0318003Y0117404D01*
X0312009Y0117800D02*
X0309253Y0117800D01*
X0312009Y0117800D02*
X0312009Y0115044D01*
X0309253Y0115044D01*
X0309253Y0117800D01*
X0309253Y0116224D02*
X0312009Y0116224D01*
X0312009Y0117404D02*
X0309253Y0117404D01*
D17*
X0309494Y0093000D03*
X0320518Y0093000D03*
X0316768Y0144250D03*
X0305744Y0144250D03*
D18*
X0278756Y0065736D03*
X0273756Y0065736D03*
X0268756Y0065736D03*
X0263756Y0065736D03*
X0263756Y0045264D03*
X0268756Y0045264D03*
X0273756Y0045264D03*
X0278756Y0045264D03*
D19*
X0098756Y0150500D03*
X0088756Y0150500D03*
X0078756Y0150500D03*
X0078756Y0160500D03*
X0088756Y0160500D03*
X0098756Y0160500D03*
D20*
X0098756Y0175500D03*
X0108756Y0175500D03*
X0088756Y0175500D03*
X0078756Y0175500D03*
X0068756Y0175500D03*
X0058756Y0175500D03*
X0346256Y0020500D03*
X0356256Y0020500D03*
X0366256Y0020500D03*
X0376256Y0020500D03*
D21*
X0206256Y0025500D03*
X0061256Y0025500D03*
X0251256Y0165500D03*
X0276256Y0165500D03*
D22*
X0290035Y0165500D03*
X0303815Y0165500D03*
X0317594Y0165500D03*
X0331374Y0165500D03*
X0345154Y0165500D03*
X0358933Y0165500D03*
X0372713Y0165500D03*
X0386492Y0165500D03*
X0400272Y0165500D03*
X0237476Y0165500D03*
X0223697Y0165500D03*
X0209917Y0165500D03*
X0196138Y0165500D03*
X0182358Y0165500D03*
X0168579Y0165500D03*
X0154799Y0165500D03*
X0141020Y0165500D03*
X0127240Y0165500D03*
X0130154Y0025500D03*
X0116374Y0025500D03*
X0102594Y0025500D03*
X0088815Y0025500D03*
X0075035Y0025500D03*
X0143933Y0025500D03*
X0157713Y0025500D03*
X0171492Y0025500D03*
X0185272Y0025500D03*
X0220035Y0025500D03*
X0233815Y0025500D03*
X0247594Y0025500D03*
X0261374Y0025500D03*
X0275154Y0025500D03*
X0288933Y0025500D03*
X0302713Y0025500D03*
X0316492Y0025500D03*
X0330272Y0025500D03*
D23*
X0023564Y0125382D03*
X0023564Y0127941D03*
X0023564Y0130500D03*
X0023564Y0133059D03*
X0023564Y0135618D03*
D24*
X0013131Y0146248D03*
X0013131Y0114752D03*
D25*
X0013131Y0125500D03*
X0013131Y0135500D03*
D26*
X0460751Y0110687D03*
X0460751Y0102813D03*
D27*
X0481224Y0093364D03*
X0481224Y0120136D03*
D28*
X0395783Y0140500D03*
X0386728Y0140500D03*
X0360783Y0140500D03*
X0351728Y0140500D03*
D29*
X0331443Y0140510D03*
X0323175Y0144250D03*
X0331443Y0147990D03*
X0332693Y0104240D03*
X0324425Y0100500D03*
X0332693Y0096760D03*
X0101837Y0111125D03*
X0093569Y0107385D03*
X0093569Y0114865D03*
X0087462Y0123625D03*
X0079194Y0127365D03*
X0079194Y0119885D03*
D30*
X0064996Y0114437D03*
X0057516Y0114437D03*
X0061256Y0106169D03*
D31*
X0290232Y0063000D03*
X0290232Y0058000D03*
X0290232Y0053000D03*
X0290232Y0048000D03*
X0312280Y0048000D03*
X0312280Y0053000D03*
X0312280Y0058000D03*
X0312280Y0063000D03*
D32*
X0029199Y0101425D03*
X0025656Y0049457D03*
D33*
X0080774Y0071504D03*
X0080774Y0095126D03*
D34*
X0040616Y0093551D03*
X0040616Y0097882D03*
X0039041Y0089220D03*
X0040616Y0084890D03*
X0039041Y0080559D03*
X0040616Y0076228D03*
X0042191Y0071898D03*
X0040616Y0067567D03*
D35*
X0361069Y0119260D03*
X0363037Y0119260D03*
X0365006Y0119260D03*
X0366974Y0119260D03*
X0368943Y0119260D03*
X0368943Y0126740D03*
X0366974Y0126740D03*
X0365006Y0126740D03*
X0363037Y0126740D03*
X0361069Y0126740D03*
X0396069Y0126740D03*
X0398037Y0126740D03*
X0400006Y0126740D03*
X0401974Y0126740D03*
X0403943Y0126740D03*
X0403943Y0119260D03*
X0401974Y0119260D03*
X0400006Y0119260D03*
X0398037Y0119260D03*
X0396069Y0119260D03*
D36*
X0400006Y0123000D03*
X0365006Y0123000D03*
D37*
X0215833Y0124201D03*
X0194179Y0124201D03*
X0194179Y0136799D03*
X0215833Y0136799D03*
D38*
X0352555Y0065500D03*
X0352555Y0061169D03*
X0352555Y0056839D03*
X0352555Y0052508D03*
X0352555Y0048177D03*
X0352555Y0043846D03*
X0352555Y0039516D03*
X0352555Y0035185D03*
X0352555Y0030854D03*
X0389957Y0030500D03*
X0389957Y0034831D03*
X0389957Y0039161D03*
X0389957Y0043492D03*
X0389957Y0047823D03*
X0389957Y0052154D03*
X0389957Y0056484D03*
X0389957Y0060815D03*
X0389957Y0065146D03*
D39*
X0137083Y0111051D03*
X0135114Y0111051D03*
X0133146Y0111051D03*
X0131177Y0111051D03*
X0129209Y0111051D03*
X0127240Y0111051D03*
X0125272Y0111051D03*
X0123303Y0111051D03*
X0121335Y0111051D03*
X0119366Y0111051D03*
X0117398Y0111051D03*
X0115429Y0111051D03*
X0115429Y0129949D03*
X0117398Y0129949D03*
X0119366Y0129949D03*
X0121335Y0129949D03*
X0123303Y0129949D03*
X0125272Y0129949D03*
X0127240Y0129949D03*
X0129209Y0129949D03*
X0131177Y0129949D03*
X0133146Y0129949D03*
X0135114Y0129949D03*
X0137083Y0129949D03*
D40*
X0139642Y0126406D03*
X0139642Y0124437D03*
X0139642Y0122469D03*
X0139642Y0120500D03*
X0139642Y0118531D03*
X0139642Y0116563D03*
X0139642Y0114594D03*
X0112870Y0114594D03*
X0112870Y0116563D03*
X0112870Y0118531D03*
X0112870Y0120500D03*
X0112870Y0122469D03*
X0112870Y0124437D03*
X0112870Y0126406D03*
D41*
X0126256Y0120500D03*
D42*
X0113411Y0111986D03*
D43*
X0224524Y0112547D03*
X0224524Y0110579D03*
X0224524Y0108610D03*
X0224524Y0106642D03*
X0224524Y0104673D03*
X0224524Y0114516D03*
X0224524Y0116484D03*
X0224524Y0118453D03*
X0224524Y0120421D03*
X0224524Y0122390D03*
X0224524Y0124358D03*
X0224524Y0126327D03*
X0257988Y0126327D03*
X0257988Y0124358D03*
X0257988Y0122390D03*
X0257988Y0120421D03*
X0257988Y0118453D03*
X0257988Y0116484D03*
X0257988Y0114516D03*
X0257988Y0112547D03*
X0257988Y0110579D03*
X0257988Y0108610D03*
X0257988Y0106642D03*
X0257988Y0104673D03*
D44*
X0252083Y0098768D03*
X0250114Y0098768D03*
X0248146Y0098768D03*
X0246177Y0098768D03*
X0244209Y0098768D03*
X0242240Y0098768D03*
X0240272Y0098768D03*
X0238303Y0098768D03*
X0236335Y0098768D03*
X0234366Y0098768D03*
X0232398Y0098768D03*
X0230429Y0098768D03*
X0230429Y0132232D03*
X0232398Y0132232D03*
X0234366Y0132232D03*
X0236335Y0132232D03*
X0238303Y0132232D03*
X0240272Y0132232D03*
X0242240Y0132232D03*
X0244209Y0132232D03*
X0246177Y0132232D03*
X0248146Y0132232D03*
X0250114Y0132232D03*
X0252083Y0132232D03*
D45*
X0403916Y0084622D03*
X0403916Y0076748D03*
X0403916Y0068874D03*
X0403916Y0061000D03*
X0403916Y0053125D03*
X0403916Y0045251D03*
X0403916Y0037377D03*
X0403916Y0029503D03*
X0462971Y0029503D03*
X0462971Y0037377D03*
X0462971Y0045251D03*
X0462971Y0053125D03*
X0462971Y0061000D03*
X0462971Y0068874D03*
X0462971Y0076748D03*
X0462971Y0084622D03*
D46*
X0290980Y0112724D03*
X0289406Y0112724D03*
X0287831Y0112724D03*
X0286256Y0112724D03*
X0284681Y0112724D03*
X0283106Y0112724D03*
X0281531Y0112724D03*
X0281531Y0128276D03*
X0283106Y0128276D03*
X0284681Y0128276D03*
X0286256Y0128276D03*
X0287831Y0128276D03*
X0289406Y0128276D03*
X0290980Y0128276D03*
D47*
X0294031Y0125224D03*
X0294031Y0123650D03*
X0294031Y0122075D03*
X0294031Y0120500D03*
X0294031Y0118925D03*
X0294031Y0117350D03*
X0294031Y0115776D03*
X0278480Y0115776D03*
X0278480Y0117350D03*
X0278480Y0118925D03*
X0278480Y0120500D03*
X0278480Y0122075D03*
X0278480Y0123650D03*
X0278480Y0125224D03*
D48*
X0286256Y0120500D03*
D49*
X0479506Y0040500D03*
X0479506Y0020500D03*
D50*
X0479506Y0030500D03*
D51*
X0459068Y0128372D03*
X0435053Y0128372D03*
X0435053Y0173253D03*
X0459068Y0173253D03*
D52*
X0046925Y0038512D03*
X0030587Y0038512D03*
X0030587Y0027488D03*
X0046925Y0027488D03*
X0043175Y0170613D03*
X0026837Y0170613D03*
X0026837Y0181637D03*
X0043175Y0181637D03*
D53*
X0116256Y0096996D03*
X0136256Y0096996D03*
X0156256Y0096996D03*
X0146256Y0084004D03*
X0126256Y0084004D03*
X0106256Y0084004D03*
X0116256Y0056996D03*
X0136256Y0056996D03*
X0156256Y0056996D03*
X0146256Y0044004D03*
X0126256Y0044004D03*
X0106256Y0044004D03*
D54*
X0091756Y0070500D02*
X0091756Y0077389D01*
X0110887Y0096521D01*
X0110887Y0102341D01*
X0112796Y0104250D01*
X0118756Y0104250D01*
X0122506Y0108000D01*
X0125006Y0108000D01*
X0126256Y0109250D01*
X0126256Y0111051D01*
X0127240Y0111051D01*
X0127240Y0119516D01*
X0122626Y0120500D02*
X0115429Y0113304D01*
X0115429Y0111051D01*
X0117398Y0111051D02*
X0117398Y0109142D01*
X0116256Y0108000D01*
X0108131Y0108000D01*
X0105631Y0111125D01*
X0101837Y0111125D01*
X0097506Y0106125D02*
X0117506Y0106125D01*
X0119381Y0108000D01*
X0119381Y0111036D01*
X0119366Y0111051D01*
X0121335Y0111051D02*
X0121335Y0115421D01*
X0125272Y0111051D02*
X0126256Y0111051D01*
X0129132Y0110975D02*
X0129209Y0111051D01*
X0129132Y0110975D02*
X0129132Y0109093D01*
X0124164Y0104125D01*
X0121798Y0104125D01*
X0120006Y0102333D01*
X0113708Y0102333D01*
X0112887Y0101513D01*
X0112887Y0090635D01*
X0106256Y0084004D01*
X0126256Y0084004D02*
X0126256Y0100560D01*
X0133209Y0107513D01*
X0133209Y0110128D01*
X0133146Y0110191D01*
X0133146Y0111051D01*
X0131209Y0111020D02*
X0131177Y0111051D01*
X0131209Y0111020D02*
X0131209Y0108341D01*
X0124992Y0102125D01*
X0122881Y0102125D01*
X0118756Y0098000D01*
X0117260Y0098000D01*
X0116256Y0096996D01*
X0102506Y0096125D02*
X0091179Y0096125D01*
X0072506Y0114798D01*
X0072506Y0119654D01*
X0092506Y0120279D02*
X0097506Y0120279D01*
X0097506Y0106125D01*
X0117398Y0120500D02*
X0117398Y0129949D01*
X0119366Y0129949D02*
X0121335Y0129949D01*
X0123303Y0129949D02*
X0125272Y0129949D01*
X0127240Y0129949D02*
X0129209Y0129949D01*
X0131177Y0129949D02*
X0131177Y0133000D01*
X0123756Y0133000D01*
X0123756Y0136750D01*
X0119366Y0132077D02*
X0117506Y0133938D01*
X0117506Y0141750D01*
X0126256Y0144250D02*
X0126256Y0148000D01*
X0126256Y0144250D02*
X0137506Y0144250D01*
X0137506Y0133000D01*
X0133131Y0133000D01*
X0133131Y0129949D01*
X0133146Y0129949D01*
X0139642Y0126406D02*
X0139642Y0153098D01*
X0127240Y0165500D01*
X0141020Y0165500D02*
X0143520Y0163000D01*
X0143520Y0124437D01*
X0139642Y0124437D01*
X0139642Y0122469D02*
X0148756Y0122469D01*
X0148756Y0159457D01*
X0154799Y0165500D01*
X0168579Y0165500D02*
X0151256Y0148177D01*
X0151256Y0120500D01*
X0139642Y0120500D01*
X0139642Y0118531D02*
X0153756Y0118531D01*
X0153756Y0138000D01*
X0182358Y0165500D01*
X0186256Y0155618D02*
X0196138Y0165500D01*
X0215395Y0161530D02*
X0222987Y0153938D01*
X0242193Y0153938D01*
X0248756Y0147375D01*
X0248756Y0138000D01*
X0246160Y0135716D01*
X0246160Y0132250D01*
X0246177Y0132232D01*
X0242240Y0132232D02*
X0242240Y0128653D01*
X0241303Y0127715D01*
X0241303Y0126797D01*
X0238756Y0124250D01*
X0240272Y0122734D01*
X0240272Y0098768D01*
X0242209Y0098736D02*
X0242209Y0086703D01*
X0245599Y0083313D01*
X0253027Y0083729D02*
X0253027Y0081646D01*
X0245631Y0074250D01*
X0251256Y0074131D02*
X0253690Y0076566D01*
X0257121Y0076566D01*
X0265778Y0085223D01*
X0265778Y0105273D01*
X0262458Y0108593D01*
X0258006Y0108593D01*
X0257988Y0108610D01*
X0258067Y0110500D02*
X0257988Y0110579D01*
X0258067Y0110500D02*
X0263443Y0110500D01*
X0268318Y0105625D01*
X0268318Y0085063D01*
X0256881Y0073625D01*
X0256256Y0080500D02*
X0256256Y0081422D01*
X0263591Y0088444D01*
X0263591Y0104632D01*
X0261581Y0106642D01*
X0257988Y0106642D01*
X0257988Y0104673D02*
X0261256Y0101406D01*
X0261256Y0089875D01*
X0261302Y0089875D01*
X0258877Y0087450D01*
X0256748Y0087450D01*
X0253027Y0083729D01*
X0248865Y0086625D02*
X0244209Y0091281D01*
X0244209Y0098768D01*
X0244209Y0100754D01*
X0244223Y0100768D01*
X0246177Y0098768D02*
X0246194Y0098750D01*
X0246194Y0095235D01*
X0246256Y0092049D01*
X0248430Y0089875D01*
X0253756Y0089875D01*
X0256256Y0093000D01*
X0253934Y0095276D02*
X0253172Y0094515D01*
X0249025Y0094515D01*
X0248263Y0095276D01*
X0248263Y0098650D01*
X0248146Y0098768D01*
X0242240Y0098767D02*
X0242230Y0098765D01*
X0242222Y0098761D01*
X0242215Y0098754D01*
X0242211Y0098746D01*
X0242209Y0098736D01*
X0238303Y0098768D02*
X0238303Y0116484D01*
X0224524Y0116484D01*
X0216881Y0116484D01*
X0216881Y0114471D01*
X0211881Y0112375D02*
X0211881Y0107779D01*
X0216881Y0107779D01*
X0211881Y0112375D02*
X0206034Y0112375D01*
X0200409Y0118000D01*
X0200799Y0117611D02*
X0188457Y0117611D01*
X0186895Y0119173D01*
X0186895Y0140577D01*
X0189318Y0143000D01*
X0200409Y0143000D01*
X0208352Y0142980D02*
X0215833Y0135500D01*
X0215833Y0135018D02*
X0224524Y0126327D01*
X0224524Y0124358D02*
X0224506Y0124341D01*
X0220991Y0124341D01*
X0220851Y0124201D01*
X0215833Y0124201D01*
X0211881Y0118453D02*
X0211881Y0112375D01*
X0211881Y0118453D02*
X0224524Y0118453D01*
X0233756Y0118453D01*
X0233969Y0118666D01*
X0233969Y0120528D01*
X0235776Y0122334D01*
X0236840Y0122334D01*
X0238756Y0124250D01*
X0235882Y0126437D02*
X0230178Y0126437D01*
X0235882Y0126437D02*
X0238186Y0128741D01*
X0238186Y0132115D01*
X0238303Y0132232D01*
X0251881Y0138625D02*
X0257853Y0132653D01*
X0269718Y0132653D01*
X0302565Y0165500D01*
X0303815Y0165500D01*
X0290035Y0165500D02*
X0290035Y0156424D01*
X0268621Y0135010D01*
X0261513Y0135010D01*
X0253185Y0143337D01*
X0253343Y0143025D01*
X0275006Y0146125D02*
X0255631Y0165500D01*
X0251256Y0165500D01*
X0186256Y0155618D02*
X0186256Y0155500D01*
X0176256Y0155500D01*
X0156256Y0135500D01*
X0156256Y0116563D01*
X0139642Y0116563D01*
X0137209Y0111051D02*
X0137209Y0110500D01*
X0137209Y0103929D01*
X0139624Y0101513D01*
X0139624Y0090635D01*
X0146256Y0084004D01*
X0135114Y0098138D02*
X0135114Y0111051D01*
X0119366Y0129949D02*
X0119366Y0132077D01*
X0070631Y0134563D02*
X0070631Y0143625D01*
X0070006Y0144250D01*
X0070006Y0148938D01*
X0070631Y0134563D02*
X0062193Y0134563D01*
X0061138Y0135618D01*
X0023564Y0135618D01*
X0224524Y0116484D02*
X0224541Y0116502D01*
X0233941Y0120500D02*
X0233969Y0120528D01*
X0237053Y0119250D02*
X0238303Y0118000D01*
X0238303Y0116484D01*
X0254848Y0120500D02*
X0254927Y0120421D01*
X0257988Y0120421D01*
X0257988Y0118453D02*
X0266428Y0118453D01*
X0268756Y0116125D01*
X0274693Y0116125D01*
X0274693Y0081125D01*
X0273756Y0080188D01*
X0273756Y0065736D01*
X0271256Y0064250D02*
X0271256Y0105247D01*
X0271509Y0105500D01*
X0272818Y0105500D01*
X0272818Y0114250D01*
X0267506Y0114250D01*
X0265272Y0116484D01*
X0257988Y0116484D01*
X0257988Y0114516D02*
X0256273Y0114516D01*
X0256256Y0114498D01*
X0257146Y0114498D01*
X0257988Y0112547D02*
X0265771Y0112547D01*
X0268131Y0110187D01*
X0286256Y0104250D02*
X0290006Y0104250D01*
X0291465Y0105710D01*
X0306038Y0105710D01*
X0307765Y0107437D01*
X0318781Y0107437D01*
X0320943Y0105187D01*
X0313131Y0103625D02*
X0292506Y0103625D01*
X0286568Y0097687D01*
X0279159Y0097687D01*
X0255898Y0098437D02*
X0253934Y0096473D01*
X0253934Y0095276D01*
X0232398Y0098768D02*
X0232398Y0076642D01*
X0231256Y0075500D01*
X0230429Y0079673D02*
X0226256Y0075500D01*
X0230429Y0079673D02*
X0230429Y0098768D01*
X0274693Y0081125D02*
X0281256Y0081125D01*
X0285631Y0085500D01*
X0288131Y0085500D01*
X0288131Y0081971D01*
X0288131Y0085500D02*
X0376256Y0085500D01*
X0376256Y0078846D01*
X0376256Y0075522D01*
X0376254Y0075514D01*
X0376250Y0075506D01*
X0376242Y0075502D01*
X0376234Y0075500D01*
X0345631Y0075500D01*
X0345631Y0063000D01*
X0345631Y0034875D01*
X0336256Y0025500D01*
X0341156Y0020600D01*
X0341156Y0018388D02*
X0344143Y0015400D01*
X0358368Y0015400D01*
X0361256Y0018288D01*
X0361256Y0023000D01*
X0363756Y0025500D01*
X0368756Y0025500D01*
X0373756Y0020500D01*
X0366256Y0020500D02*
X0358131Y0012375D01*
X0341881Y0012375D01*
X0336256Y0018000D01*
X0323992Y0018000D01*
X0316492Y0025500D01*
X0316492Y0050500D01*
X0306256Y0050500D01*
X0306256Y0058000D01*
X0306256Y0078846D01*
X0296881Y0078846D01*
X0296881Y0081971D01*
X0296881Y0078846D02*
X0278756Y0078846D01*
X0278756Y0065736D01*
X0278756Y0064250D01*
X0271256Y0064250D01*
X0278756Y0050500D02*
X0300006Y0050500D01*
X0306256Y0058000D02*
X0312280Y0058000D01*
X0312280Y0063000D02*
X0345631Y0063000D01*
X0366256Y0078846D02*
X0306256Y0078846D01*
X0345006Y0108040D02*
X0345006Y0119250D01*
X0358756Y0119250D01*
X0358756Y0124250D01*
X0361256Y0124250D01*
X0361256Y0120793D01*
X0361245Y0120783D01*
X0361245Y0120013D01*
X0361237Y0120005D01*
X0361237Y0118514D01*
X0361245Y0118506D01*
X0361245Y0117737D01*
X0361256Y0117726D01*
X0361256Y0108000D01*
X0350869Y0108000D01*
X0350772Y0108040D01*
X0345006Y0108040D01*
X0345006Y0108354D02*
X0361256Y0108354D01*
X0361256Y0109353D02*
X0345006Y0109353D01*
X0345006Y0110351D02*
X0361256Y0110351D01*
X0361256Y0111350D02*
X0345006Y0111350D01*
X0345006Y0112348D02*
X0361256Y0112348D01*
X0361256Y0113347D02*
X0345006Y0113347D01*
X0345006Y0114345D02*
X0361256Y0114345D01*
X0361256Y0115344D02*
X0345006Y0115344D01*
X0345006Y0116342D02*
X0361256Y0116342D01*
X0361256Y0117341D02*
X0345006Y0117341D01*
X0345006Y0118339D02*
X0361245Y0118339D01*
X0361237Y0119338D02*
X0358756Y0119338D01*
X0358756Y0120336D02*
X0361245Y0120336D01*
X0361256Y0121335D02*
X0358756Y0121335D01*
X0358756Y0122333D02*
X0361256Y0122333D01*
X0361256Y0123332D02*
X0358756Y0123332D01*
X0356956Y0123332D02*
X0345006Y0123332D01*
X0345006Y0124330D02*
X0356956Y0124330D01*
X0356956Y0124996D02*
X0356956Y0121050D01*
X0345006Y0121050D01*
X0345006Y0150500D01*
X0355006Y0150500D01*
X0355006Y0130500D01*
X0361237Y0130500D01*
X0361237Y0126050D01*
X0358010Y0126050D01*
X0356956Y0124996D01*
X0357289Y0125329D02*
X0345006Y0125329D01*
X0345006Y0126327D02*
X0361237Y0126327D01*
X0361237Y0127326D02*
X0345006Y0127326D01*
X0345006Y0128324D02*
X0361237Y0128324D01*
X0361237Y0129323D02*
X0345006Y0129323D01*
X0345006Y0130321D02*
X0361237Y0130321D01*
X0363037Y0126740D02*
X0363037Y0139640D01*
X0355006Y0139308D02*
X0345006Y0139308D01*
X0345006Y0140306D02*
X0355006Y0140306D01*
X0355006Y0141305D02*
X0345006Y0141305D01*
X0345006Y0142303D02*
X0355006Y0142303D01*
X0355006Y0143302D02*
X0345006Y0143302D01*
X0345006Y0144301D02*
X0355006Y0144301D01*
X0355006Y0145299D02*
X0345006Y0145299D01*
X0345006Y0146298D02*
X0355006Y0146298D01*
X0355006Y0147296D02*
X0345006Y0147296D01*
X0345006Y0148295D02*
X0355006Y0148295D01*
X0355006Y0149293D02*
X0345006Y0149293D01*
X0345006Y0150292D02*
X0355006Y0150292D01*
X0351728Y0150500D02*
X0368756Y0150500D01*
X0368756Y0143846D01*
X0373756Y0143846D01*
X0368756Y0143846D02*
X0368756Y0133000D01*
X0365006Y0133000D01*
X0365006Y0126740D01*
X0366974Y0126740D02*
X0366974Y0130500D01*
X0373756Y0130500D01*
X0373756Y0137154D01*
X0381256Y0137311D02*
X0390006Y0137311D01*
X0390006Y0138309D02*
X0381256Y0138309D01*
X0381256Y0139308D02*
X0390006Y0139308D01*
X0390006Y0140306D02*
X0381256Y0140306D01*
X0381256Y0141305D02*
X0390006Y0141305D01*
X0390006Y0142303D02*
X0381256Y0142303D01*
X0381256Y0143302D02*
X0390006Y0143302D01*
X0390006Y0144301D02*
X0381256Y0144301D01*
X0381256Y0145299D02*
X0390006Y0145299D01*
X0390006Y0146298D02*
X0381256Y0146298D01*
X0381256Y0147296D02*
X0390006Y0147296D01*
X0390006Y0148295D02*
X0381256Y0148295D01*
X0381256Y0149293D02*
X0390006Y0149293D01*
X0390006Y0150292D02*
X0381256Y0150292D01*
X0381256Y0150500D02*
X0390006Y0150500D01*
X0390006Y0130500D01*
X0396237Y0130500D01*
X0396237Y0126050D01*
X0393010Y0126050D01*
X0391956Y0124996D01*
X0391956Y0121750D01*
X0381256Y0121750D01*
X0381256Y0150500D01*
X0398037Y0138246D02*
X0398037Y0126740D01*
X0396237Y0126327D02*
X0381256Y0126327D01*
X0381256Y0125329D02*
X0392289Y0125329D01*
X0391956Y0124330D02*
X0381256Y0124330D01*
X0381256Y0123332D02*
X0391956Y0123332D01*
X0391956Y0122333D02*
X0381256Y0122333D01*
X0381256Y0119250D02*
X0393756Y0119250D01*
X0393756Y0124250D01*
X0403756Y0124250D01*
X0403756Y0125207D01*
X0403767Y0125217D01*
X0403767Y0125987D01*
X0403774Y0125995D01*
X0403774Y0128000D01*
X0415006Y0128000D01*
X0415006Y0121750D01*
X0396256Y0121750D01*
X0396256Y0120793D01*
X0396245Y0120783D01*
X0396245Y0120013D01*
X0396237Y0120005D01*
X0396237Y0118514D01*
X0396245Y0118506D01*
X0396245Y0117737D01*
X0396256Y0117726D01*
X0396256Y0108000D01*
X0381256Y0108000D01*
X0381256Y0119250D01*
X0381256Y0118339D02*
X0396245Y0118339D01*
X0396256Y0117341D02*
X0381256Y0117341D01*
X0381256Y0116342D02*
X0396256Y0116342D01*
X0396256Y0115344D02*
X0381256Y0115344D01*
X0381256Y0114345D02*
X0396256Y0114345D01*
X0396256Y0113347D02*
X0381256Y0113347D01*
X0381256Y0112348D02*
X0396256Y0112348D01*
X0396256Y0111350D02*
X0381256Y0111350D01*
X0381256Y0110351D02*
X0396256Y0110351D01*
X0396256Y0109353D02*
X0381256Y0109353D01*
X0381256Y0108354D02*
X0396256Y0108354D01*
X0399974Y0113878D02*
X0402102Y0111750D01*
X0399974Y0113878D02*
X0399974Y0119260D01*
X0398037Y0119260D01*
X0396237Y0119338D02*
X0393756Y0119338D01*
X0393756Y0120336D02*
X0396245Y0120336D01*
X0396256Y0121335D02*
X0393756Y0121335D01*
X0393756Y0122333D02*
X0415006Y0122333D01*
X0415006Y0123332D02*
X0393756Y0123332D01*
X0401974Y0123000D02*
X0401974Y0119260D01*
X0403943Y0119260D02*
X0403974Y0119260D01*
X0406256Y0119260D01*
X0410400Y0119260D01*
X0415006Y0124330D02*
X0403756Y0124330D01*
X0403767Y0125329D02*
X0415006Y0125329D01*
X0415006Y0126327D02*
X0403774Y0126327D01*
X0403774Y0127326D02*
X0415006Y0127326D01*
X0407506Y0130500D02*
X0401974Y0130500D01*
X0401974Y0126740D01*
X0396237Y0127326D02*
X0381256Y0127326D01*
X0381256Y0128324D02*
X0396237Y0128324D01*
X0396237Y0129323D02*
X0381256Y0129323D01*
X0381256Y0130321D02*
X0396237Y0130321D01*
X0390006Y0131320D02*
X0381256Y0131320D01*
X0381256Y0132318D02*
X0390006Y0132318D01*
X0390006Y0133317D02*
X0381256Y0133317D01*
X0381256Y0134315D02*
X0390006Y0134315D01*
X0390006Y0135314D02*
X0381256Y0135314D01*
X0381256Y0136312D02*
X0390006Y0136312D01*
X0407506Y0137154D02*
X0407506Y0130500D01*
X0368943Y0126740D02*
X0368943Y0123000D01*
X0368943Y0119260D01*
X0366974Y0119260D01*
X0365006Y0119260D02*
X0365006Y0113846D01*
X0367102Y0111750D01*
X0365006Y0119260D02*
X0363037Y0119260D01*
X0356956Y0121335D02*
X0345006Y0121335D01*
X0345006Y0122333D02*
X0356956Y0122333D01*
X0355006Y0131320D02*
X0345006Y0131320D01*
X0345006Y0132318D02*
X0355006Y0132318D01*
X0355006Y0133317D02*
X0345006Y0133317D01*
X0345006Y0134315D02*
X0355006Y0134315D01*
X0355006Y0135314D02*
X0345006Y0135314D01*
X0345006Y0136312D02*
X0355006Y0136312D01*
X0355006Y0137311D02*
X0345006Y0137311D01*
X0345006Y0138309D02*
X0355006Y0138309D01*
X0257988Y0124358D02*
X0253335Y0124358D01*
X0252193Y0125187D01*
X0390943Y0075813D02*
X0390943Y0074000D01*
X0396070Y0068874D01*
X0403916Y0068874D01*
X0401684Y0075810D02*
X0403916Y0076748D01*
X0401684Y0075810D02*
X0396710Y0080783D01*
X0396710Y0082890D01*
X0394100Y0085500D01*
X0336256Y0025500D02*
X0330272Y0025500D01*
D55*
X0256003Y0089250D02*
X0244068Y0077316D01*
X0242383Y0077316D01*
X0241884Y0076817D01*
X0256003Y0089250D02*
X0257818Y0089250D01*
X0259395Y0090826D01*
X0259395Y0100689D01*
X0257385Y0102699D01*
X0253635Y0102699D01*
X0253635Y0113678D01*
X0254456Y0114498D01*
X0256256Y0114498D01*
X0257988Y0116484D02*
X0254115Y0116484D01*
X0250006Y0112375D01*
X0250006Y0109250D01*
X0246881Y0111750D02*
X0246881Y0106125D01*
X0248131Y0104875D01*
X0244223Y0100768D02*
X0244223Y0121095D01*
X0247442Y0124314D01*
X0247442Y0125123D01*
X0250318Y0128000D01*
X0253396Y0128000D01*
X0255424Y0130028D01*
X0269921Y0130028D01*
X0298496Y0158603D01*
X0310697Y0158603D01*
X0317594Y0165500D01*
X0301256Y0155500D02*
X0300006Y0155500D01*
X0291881Y0147375D01*
X0291881Y0133625D01*
X0289406Y0131150D01*
X0289406Y0128276D01*
X0290980Y0128276D02*
X0291531Y0128276D01*
X0294381Y0131125D01*
X0288131Y0134250D02*
X0286256Y0132375D01*
X0286256Y0128276D01*
X0287831Y0128276D02*
X0287831Y0122075D01*
X0294031Y0122075D02*
X0296556Y0122075D01*
X0296881Y0121750D01*
X0305631Y0121750D01*
X0305631Y0122075D01*
X0305631Y0121750D02*
X0305065Y0121809D01*
X0305065Y0135441D01*
X0298756Y0128000D02*
X0295980Y0125224D01*
X0294031Y0125224D01*
X0294031Y0123650D02*
X0297481Y0123650D01*
X0298756Y0124875D01*
X0299947Y0124875D01*
X0301881Y0124816D01*
X0302506Y0119875D02*
X0298131Y0119875D01*
X0297181Y0118925D01*
X0294031Y0118925D01*
X0287831Y0118925D01*
X0284681Y0118925D02*
X0284681Y0112724D01*
X0286256Y0112724D02*
X0286256Y0104250D01*
X0289381Y0108000D02*
X0305316Y0108000D01*
X0306238Y0108923D01*
X0306894Y0109569D01*
X0306900Y0109563D01*
X0306900Y0109562D01*
X0328756Y0109562D01*
X0328756Y0096750D01*
X0332693Y0096750D01*
X0324485Y0111214D02*
X0306083Y0111214D01*
X0304520Y0109651D01*
X0290007Y0109651D01*
X0289406Y0110252D01*
X0289406Y0112724D01*
X0290980Y0112724D02*
X0290980Y0112651D01*
X0291881Y0111750D01*
X0301256Y0111750D01*
X0303790Y0111750D01*
X0305040Y0113000D01*
X0316896Y0113000D01*
X0319381Y0116422D01*
X0324485Y0111214D02*
X0328131Y0116422D01*
X0331431Y0119875D02*
X0332681Y0118625D01*
X0351256Y0118625D01*
X0331431Y0119875D02*
X0308462Y0119875D01*
X0307212Y0118625D01*
X0303756Y0118625D01*
X0302506Y0119875D01*
X0299981Y0117350D02*
X0300631Y0116750D01*
X0299981Y0117350D02*
X0294031Y0117350D01*
X0294031Y0115776D02*
X0295355Y0115776D01*
X0297506Y0113625D01*
X0302447Y0113625D01*
X0305259Y0116437D01*
X0310646Y0116437D01*
X0310631Y0116422D01*
X0306894Y0109569D02*
X0306894Y0109569D01*
X0303128Y0111750D02*
X0301256Y0111750D01*
X0289381Y0108000D02*
X0287831Y0109550D01*
X0287831Y0112724D01*
X0281531Y0112724D02*
X0278131Y0112724D01*
X0278131Y0111437D01*
X0274693Y0116125D02*
X0274693Y0120500D01*
X0278480Y0120500D01*
X0278480Y0122075D02*
X0269081Y0122075D01*
X0268131Y0121125D01*
X0270852Y0126125D02*
X0273328Y0123650D01*
X0278480Y0123650D01*
X0278480Y0125224D02*
X0275631Y0125224D01*
X0275631Y0128625D01*
X0278756Y0131750D02*
X0281531Y0128974D01*
X0281531Y0128276D01*
X0283106Y0128276D02*
X0283106Y0133650D01*
X0281256Y0135500D01*
X0284681Y0137675D02*
X0286256Y0139250D01*
X0284681Y0137675D02*
X0284681Y0128276D01*
X0284681Y0118925D02*
X0278480Y0118925D01*
X0257988Y0118453D02*
X0253584Y0118453D01*
X0246881Y0111750D01*
X0247193Y0116125D02*
X0248131Y0116125D01*
X0252506Y0120500D01*
X0254848Y0120500D01*
X0254055Y0122203D02*
X0249834Y0122203D01*
X0248131Y0120500D01*
X0244387Y0123834D02*
X0242310Y0121758D01*
X0242310Y0098838D01*
X0242240Y0098768D01*
X0254055Y0122203D02*
X0254241Y0122390D01*
X0257988Y0122390D01*
X0244387Y0123834D02*
X0244387Y0126437D01*
X0244209Y0132232D02*
X0244209Y0138140D01*
X0245631Y0139563D01*
X0240272Y0136484D02*
X0240272Y0132232D01*
X0240272Y0136484D02*
X0240270Y0136514D01*
X0240265Y0136543D01*
X0240257Y0136572D01*
X0240246Y0136599D01*
X0240231Y0136626D01*
X0240214Y0136650D01*
X0240194Y0136672D01*
X0240172Y0136692D01*
X0240148Y0136709D01*
X0240121Y0136724D01*
X0240094Y0136735D01*
X0240065Y0136743D01*
X0240036Y0136748D01*
X0240006Y0136750D01*
X0231034Y0136750D01*
X0231034Y0140500D01*
X0137083Y0111051D02*
X0137083Y0110626D01*
X0137209Y0110500D01*
X0399974Y0119260D02*
X0400006Y0119260D01*
D56*
X0334832Y0135500D03*
X0304381Y0135500D03*
X0294381Y0131125D03*
X0288131Y0134250D03*
X0281256Y0135500D03*
X0278756Y0131750D03*
X0275631Y0128625D03*
X0264784Y0124875D03*
X0268131Y0121125D03*
X0252193Y0125187D03*
X0248131Y0120500D03*
X0247193Y0116125D03*
X0237053Y0119250D03*
X0238756Y0124250D03*
X0244387Y0126437D03*
X0230178Y0126437D03*
X0245631Y0139563D03*
X0251881Y0138625D03*
X0253343Y0143025D03*
X0266726Y0138470D03*
X0267506Y0143000D03*
X0270006Y0146750D03*
X0275006Y0146125D03*
X0286256Y0139250D03*
X0298756Y0128000D03*
X0301881Y0124816D03*
X0305631Y0121750D03*
X0300631Y0116750D03*
X0278131Y0111437D03*
X0268131Y0110187D03*
X0271509Y0105500D03*
X0279159Y0097687D03*
X0291881Y0098000D03*
X0313131Y0103625D03*
X0320943Y0105187D03*
X0336256Y0088937D03*
X0386256Y0085684D03*
X0394100Y0085500D03*
X0392506Y0080500D03*
X0390943Y0075813D03*
X0416256Y0060500D03*
X0431256Y0060500D03*
X0442132Y0085500D03*
X0362506Y0040500D03*
X0337506Y0058625D03*
X0300006Y0054875D03*
X0256881Y0073183D03*
X0251256Y0074131D03*
X0245631Y0074250D03*
X0241884Y0076817D03*
X0245599Y0083313D03*
X0256256Y0080500D03*
X0265631Y0074250D03*
X0243756Y0065500D03*
X0236256Y0065500D03*
X0250006Y0061750D03*
X0255006Y0061750D03*
X0231256Y0075500D03*
X0226256Y0075500D03*
X0248865Y0086625D03*
X0256256Y0093000D03*
X0255898Y0098437D03*
X0248131Y0104875D03*
X0250006Y0109250D03*
X0204693Y0093937D03*
X0193756Y0110500D03*
X0166256Y0115500D03*
X0161363Y0115607D03*
X0104381Y0132375D03*
X0096568Y0135500D03*
X0102506Y0139250D03*
X0110006Y0141750D03*
X0070006Y0148938D03*
X0066256Y0160500D03*
X0113756Y0161125D03*
X0066881Y0125500D03*
X0056256Y0105500D03*
X0091881Y0089875D03*
X0095631Y0086750D03*
X0088756Y0084250D03*
X0086256Y0080500D03*
X0086256Y0075500D03*
X0091756Y0070500D03*
X0105631Y0072375D03*
X0148131Y0072375D03*
X0102506Y0096125D03*
X0099394Y0099816D03*
X0039041Y0080559D03*
X0046256Y0016125D03*
X0026256Y0016125D03*
X0280006Y0086437D03*
X0226256Y0140500D03*
X0215006Y0156750D03*
X0215395Y0161530D03*
X0301256Y0155419D03*
X0386256Y0183000D03*
D57*
X0128756Y0183000D01*
X0121256Y0175500D01*
X0119381Y0175500D01*
X0116256Y0172375D01*
X0116256Y0164250D01*
X0127506Y0153000D01*
X0135852Y0153000D01*
X0135852Y0148000D01*
X0129159Y0148000D02*
X0126256Y0148000D01*
X0123352Y0148000D01*
X0116659Y0148000D02*
X0116659Y0155721D01*
X0110006Y0155721D01*
X0113756Y0161125D02*
X0112506Y0162375D01*
X0112506Y0171750D01*
X0114381Y0173625D01*
X0114381Y0177375D01*
X0107828Y0183928D01*
X0046631Y0183928D01*
X0045684Y0184875D01*
X0023131Y0184875D01*
X0023131Y0170613D01*
X0026837Y0170613D01*
X0043175Y0170613D01*
X0047796Y0170613D01*
X0052688Y0165721D01*
X0056256Y0165721D01*
X0057102Y0160500D02*
X0056256Y0159029D01*
X0057102Y0160500D02*
X0066256Y0160500D01*
X0063756Y0142154D02*
X0060006Y0142154D01*
X0019408Y0142154D01*
X0019408Y0129231D01*
X0020631Y0128008D01*
X0020631Y0128000D01*
X0023505Y0128000D01*
X0023564Y0127941D01*
X0023564Y0130500D02*
X0028756Y0130500D01*
X0028756Y0124654D01*
X0032909Y0120500D01*
X0039602Y0120500D02*
X0048427Y0120500D01*
X0058267Y0130340D01*
X0102346Y0130340D01*
X0104381Y0132375D01*
X0112870Y0129949D02*
X0115429Y0129949D01*
X0115429Y0135480D01*
X0114159Y0136750D01*
X0120852Y0136750D02*
X0123756Y0136750D01*
X0126659Y0136750D01*
X0133352Y0136750D02*
X0133352Y0141750D01*
X0117506Y0141750D01*
X0110006Y0141750D01*
X0110006Y0126971D01*
X0102506Y0126971D01*
X0092506Y0126971D01*
X0093408Y0132340D02*
X0057439Y0132340D01*
X0055599Y0130500D01*
X0039602Y0130500D01*
X0032909Y0130500D02*
X0030350Y0133059D01*
X0023564Y0133059D01*
X0056881Y0126125D02*
X0061256Y0126125D01*
X0061256Y0126346D01*
X0061256Y0125500D01*
X0066881Y0125500D01*
X0072506Y0125500D01*
X0072506Y0126346D01*
X0072506Y0127365D01*
X0079194Y0127365D01*
X0079194Y0127375D01*
X0083131Y0127375D01*
X0083131Y0114471D01*
X0086256Y0114471D01*
X0093569Y0114471D01*
X0093569Y0114865D01*
X0092506Y0120279D02*
X0087462Y0120279D01*
X0087462Y0123625D01*
X0079194Y0119885D02*
X0079194Y0119654D01*
X0072506Y0119654D01*
X0064996Y0119654D02*
X0064996Y0114437D01*
X0065183Y0114250D01*
X0070006Y0114250D01*
X0090631Y0093625D01*
X0095631Y0093625D01*
X0095631Y0086750D01*
X0095631Y0088625D01*
X0091881Y0089875D02*
X0091573Y0090183D01*
X0077438Y0090183D01*
X0074069Y0093551D01*
X0040616Y0093551D01*
X0030006Y0100500D02*
X0029199Y0100500D01*
X0029199Y0101425D01*
X0056256Y0105500D02*
X0056256Y0106169D01*
X0061256Y0106169D01*
X0057516Y0114437D02*
X0056881Y0114437D01*
X0056881Y0126125D01*
X0061256Y0119654D02*
X0064996Y0119654D01*
X0086256Y0107779D02*
X0093569Y0107779D01*
X0093569Y0107385D01*
X0093569Y0099816D01*
X0099394Y0099816D01*
X0116256Y0096996D02*
X0117260Y0098000D01*
X0116256Y0096996D02*
X0116256Y0078500D01*
X0106256Y0078500D01*
X0098256Y0070500D01*
X0098256Y0029839D01*
X0102594Y0025500D01*
X0096256Y0046720D02*
X0075035Y0025500D01*
X0066256Y0020500D02*
X0061256Y0025500D01*
X0066256Y0020500D02*
X0138933Y0020500D01*
X0143933Y0025500D01*
X0157713Y0025500D02*
X0157713Y0026957D01*
X0166256Y0035500D01*
X0166256Y0065500D01*
X0155631Y0076125D01*
X0145631Y0076125D01*
X0136256Y0085500D01*
X0136256Y0096996D01*
X0136190Y0096998D01*
X0136123Y0097004D01*
X0136058Y0097013D01*
X0135993Y0097027D01*
X0135928Y0097044D01*
X0135865Y0097065D01*
X0135804Y0097089D01*
X0135743Y0097117D01*
X0135685Y0097149D01*
X0135628Y0097184D01*
X0135574Y0097222D01*
X0135522Y0097263D01*
X0135472Y0097307D01*
X0135425Y0097354D01*
X0135381Y0097404D01*
X0135340Y0097456D01*
X0135302Y0097510D01*
X0135267Y0097567D01*
X0135235Y0097625D01*
X0135207Y0097686D01*
X0135183Y0097747D01*
X0135162Y0097810D01*
X0135145Y0097875D01*
X0135131Y0097940D01*
X0135122Y0098005D01*
X0135116Y0098072D01*
X0135114Y0098138D01*
X0139642Y0113610D02*
X0156256Y0096996D01*
X0156256Y0089280D01*
X0220035Y0025500D01*
X0233815Y0025500D02*
X0233815Y0063059D01*
X0236256Y0065500D01*
X0238303Y0068938D02*
X0238303Y0098768D01*
X0204693Y0093937D02*
X0183131Y0115500D01*
X0166256Y0115500D01*
X0164937Y0118684D02*
X0161860Y0115607D01*
X0161363Y0115607D01*
X0164937Y0118684D02*
X0183058Y0118684D01*
X0191242Y0110500D01*
X0193756Y0110500D01*
X0207102Y0118000D02*
X0213303Y0124201D01*
X0215833Y0124201D01*
X0226256Y0130360D02*
X0226256Y0140500D01*
X0215833Y0136799D02*
X0215833Y0135500D01*
X0215833Y0135018D01*
X0226256Y0130360D02*
X0230178Y0126437D01*
X0238303Y0131327D02*
X0238303Y0132232D01*
X0242240Y0132232D02*
X0242240Y0140500D01*
X0237727Y0140500D01*
X0242240Y0140500D02*
X0242240Y0147375D01*
X0237727Y0147375D01*
X0242240Y0147375D02*
X0242240Y0150141D01*
X0240943Y0151438D01*
X0220318Y0151438D01*
X0215006Y0156750D01*
X0216256Y0165500D02*
X0225631Y0156125D01*
X0245006Y0156125D01*
X0262661Y0138470D01*
X0266726Y0138470D01*
X0267506Y0143000D02*
X0261256Y0143000D01*
X0245631Y0158625D01*
X0230572Y0158625D01*
X0223697Y0165500D01*
X0216256Y0165500D02*
X0209917Y0165500D01*
X0237476Y0165500D02*
X0241881Y0165500D01*
X0260631Y0146750D01*
X0270006Y0146750D01*
X0301256Y0155419D02*
X0301256Y0155500D01*
X0334832Y0140904D02*
X0336256Y0140904D01*
X0334832Y0140904D02*
X0334832Y0135500D01*
X0351256Y0140500D02*
X0351728Y0140500D01*
X0351728Y0145500D01*
X0351728Y0150500D01*
X0351256Y0140500D02*
X0351256Y0125500D01*
X0351256Y0124762D01*
X0353234Y0126740D01*
X0361037Y0126740D01*
X0361069Y0123000D02*
X0365006Y0123000D01*
X0368943Y0123000D01*
X0361069Y0123000D02*
X0361069Y0119260D01*
X0361037Y0119260D01*
X0361037Y0113622D01*
X0360409Y0111750D01*
X0353244Y0111750D01*
X0351256Y0113738D01*
X0351256Y0118625D01*
X0366256Y0111750D02*
X0367102Y0111750D01*
X0386256Y0111750D02*
X0395409Y0111750D01*
X0395458Y0111752D01*
X0395507Y0111757D01*
X0395556Y0111767D01*
X0395603Y0111779D01*
X0395650Y0111796D01*
X0395695Y0111815D01*
X0395739Y0111838D01*
X0395780Y0111865D01*
X0395820Y0111894D01*
X0395857Y0111926D01*
X0395892Y0111961D01*
X0395924Y0111998D01*
X0395953Y0112038D01*
X0395980Y0112080D01*
X0396003Y0112123D01*
X0396022Y0112168D01*
X0396039Y0112215D01*
X0396051Y0112262D01*
X0396061Y0112311D01*
X0396066Y0112360D01*
X0396068Y0112409D01*
X0396069Y0112409D02*
X0396069Y0119260D01*
X0396069Y0123000D01*
X0400006Y0123000D01*
X0403943Y0123000D01*
X0411256Y0123000D01*
X0411256Y0125096D01*
X0420006Y0125096D02*
X0420006Y0130500D01*
X0412506Y0130500D01*
X0412506Y0143846D01*
X0407506Y0143846D01*
X0407506Y0150500D01*
X0387506Y0150500D01*
X0387506Y0140500D01*
X0386728Y0140500D01*
X0386256Y0140500D01*
X0386256Y0125500D01*
X0386256Y0124762D01*
X0388234Y0126740D01*
X0396069Y0126740D01*
X0403943Y0126740D02*
X0403943Y0123000D01*
X0401974Y0123000D02*
X0400006Y0123000D01*
X0410400Y0119260D02*
X0411256Y0118404D01*
X0420006Y0118404D01*
X0386256Y0113738D02*
X0386256Y0111750D01*
X0346256Y0104240D02*
X0346256Y0088937D01*
X0336256Y0088937D01*
X0332693Y0096750D02*
X0332693Y0096760D01*
X0291881Y0098000D02*
X0280006Y0086437D01*
X0279159Y0097687D02*
X0279159Y0104250D01*
X0278534Y0104250D01*
X0285227Y0104250D02*
X0286256Y0104250D01*
X0310028Y0115776D02*
X0310631Y0116422D01*
X0287831Y0118925D02*
X0286256Y0120500D01*
X0287831Y0122075D01*
X0286256Y0120500D02*
X0284681Y0118925D01*
X0286256Y0118925D01*
X0286256Y0120500D01*
X0264784Y0124875D02*
X0264784Y0125500D01*
X0264159Y0126125D01*
X0264205Y0126125D02*
X0261521Y0126309D01*
X0258006Y0126309D01*
X0257988Y0126327D01*
X0264205Y0126125D02*
X0264784Y0124875D01*
X0304381Y0135500D02*
X0305065Y0135441D01*
X0304381Y0135500D02*
X0309602Y0135500D01*
X0310631Y0135409D01*
X0360783Y0140500D02*
X0363006Y0140500D01*
X0363006Y0139672D01*
X0363037Y0139640D01*
X0395783Y0140500D02*
X0398037Y0138246D01*
X0386256Y0085684D02*
X0387759Y0084181D01*
X0387759Y0074494D01*
X0392124Y0070128D01*
X0395226Y0067003D01*
X0395243Y0064799D01*
X0400117Y0064799D01*
X0403916Y0061000D01*
X0389957Y0060815D02*
X0376256Y0060815D01*
X0376256Y0072154D01*
X0366256Y0072154D02*
X0366256Y0056484D01*
X0389957Y0056484D01*
X0403916Y0053125D02*
X0404041Y0053000D01*
X0412818Y0053000D01*
X0416256Y0056437D01*
X0416256Y0060500D01*
X0414788Y0068874D02*
X0410714Y0072948D01*
X0410811Y0072948D01*
X0409524Y0072985D01*
X0396493Y0072985D01*
X0395006Y0074472D01*
X0395006Y0078000D01*
X0392506Y0080500D01*
X0403916Y0076748D02*
X0403913Y0076125D01*
X0403916Y0068874D02*
X0403820Y0067936D01*
X0414788Y0068874D02*
X0462971Y0068874D01*
X0376256Y0020500D02*
X0373756Y0020500D01*
X0352555Y0035185D02*
X0352555Y0039516D01*
X0352555Y0043846D01*
X0312280Y0048000D02*
X0300006Y0048000D01*
X0300006Y0050500D01*
X0300006Y0054875D01*
X0290232Y0053000D02*
X0258756Y0053000D01*
X0258756Y0065500D01*
X0243756Y0065500D01*
X0238303Y0068938D02*
X0263756Y0068938D01*
X0263756Y0065736D01*
X0263756Y0058000D01*
X0284381Y0058000D01*
X0284381Y0075279D01*
X0288131Y0075279D01*
X0296881Y0075279D01*
X0268756Y0071125D02*
X0268756Y0065736D01*
X0268756Y0071125D02*
X0265631Y0074250D01*
X0256881Y0073625D02*
X0256881Y0073183D01*
X0255006Y0061750D02*
X0255006Y0036750D01*
X0260006Y0036750D01*
X0270210Y0026546D01*
X0270210Y0023452D01*
X0273106Y0020557D01*
X0276199Y0020557D01*
X0276256Y0020500D01*
X0297713Y0020500D01*
X0302713Y0025500D01*
X0307656Y0023452D02*
X0307656Y0027548D01*
X0304760Y0030443D01*
X0300665Y0030443D01*
X0295722Y0025500D01*
X0288933Y0025500D01*
X0275154Y0025500D02*
X0271256Y0029398D01*
X0271256Y0045264D01*
X0273756Y0045264D01*
X0278756Y0045264D01*
X0278756Y0050500D01*
X0271256Y0045264D02*
X0268756Y0045264D01*
X0263756Y0045264D01*
X0284381Y0058000D02*
X0290232Y0058000D01*
X0250006Y0061750D02*
X0250006Y0031750D01*
X0256431Y0025325D01*
X0256431Y0023452D01*
X0262451Y0017432D01*
X0302260Y0017432D01*
X0307656Y0023452D01*
X0341156Y0020600D02*
X0341156Y0018388D01*
X0185272Y0025500D02*
X0185272Y0053984D01*
X0156256Y0083000D01*
X0147260Y0083000D01*
X0146256Y0084004D01*
X0126256Y0084004D02*
X0126256Y0051889D01*
X0129624Y0048521D01*
X0129624Y0026029D01*
X0130154Y0025500D01*
X0126256Y0044004D02*
X0121256Y0049004D01*
X0121256Y0067154D01*
X0112506Y0067154D02*
X0112506Y0060746D01*
X0116256Y0056996D01*
X0103756Y0060904D02*
X0103756Y0046504D01*
X0106256Y0044004D01*
X0096256Y0046720D02*
X0096256Y0074250D01*
X0106256Y0084250D01*
X0106256Y0084004D01*
X0088756Y0084250D02*
X0040616Y0084250D01*
X0040616Y0084890D01*
X0040616Y0076228D02*
X0077219Y0076228D01*
X0077438Y0076447D01*
X0082203Y0076447D01*
X0086256Y0080500D01*
X0086256Y0075500D02*
X0086256Y0065500D01*
X0076256Y0065500D01*
X0069858Y0071898D01*
X0042191Y0071898D01*
X0074381Y0038625D02*
X0091756Y0056000D01*
X0091756Y0070500D01*
X0103756Y0070500D02*
X0103756Y0067596D01*
X0106256Y0067596D01*
X0112506Y0073846D01*
X0121256Y0073846D01*
X0131256Y0073846D02*
X0140006Y0073846D01*
X0141881Y0073846D01*
X0148756Y0066971D01*
X0148756Y0071750D01*
X0148131Y0072375D01*
X0140006Y0067154D02*
X0140006Y0050254D01*
X0146256Y0044004D01*
X0156256Y0056996D02*
X0152973Y0060279D01*
X0148756Y0060279D01*
X0136256Y0056996D02*
X0131256Y0061996D01*
X0131256Y0067154D01*
X0105631Y0072375D02*
X0103756Y0070500D01*
X0074381Y0038625D02*
X0061256Y0038625D01*
X0046925Y0027488D02*
X0030587Y0027488D01*
X0046925Y0027488D02*
X0046925Y0016794D01*
X0046256Y0016125D01*
X0047256Y0016125D01*
X0046256Y0016125D02*
X0039602Y0016125D01*
X0032909Y0016125D02*
X0026256Y0016125D01*
X0025656Y0049457D02*
X0030006Y0049457D01*
X0101256Y0111125D02*
X0101256Y0120279D01*
X0102506Y0120279D01*
X0112870Y0122469D02*
X0112870Y0124437D01*
X0112870Y0126406D01*
X0112870Y0129949D01*
X0115429Y0129949D02*
X0117398Y0129949D01*
X0117398Y0120500D02*
X0126256Y0120500D01*
X0122626Y0120500D01*
X0126256Y0120500D02*
X0127240Y0119516D01*
X0126256Y0120500D02*
X0121256Y0115500D01*
X0121335Y0115421D01*
X0139642Y0114594D02*
X0139642Y0113610D01*
X0101837Y0111125D02*
X0101256Y0111125D01*
X0093408Y0132340D02*
X0096568Y0135500D01*
X0102506Y0139250D02*
X0074602Y0139250D01*
X0073977Y0138625D01*
X0067284Y0138625D02*
X0063756Y0142154D01*
X0052506Y0181125D02*
X0043175Y0181125D01*
X0043175Y0181637D01*
X0026837Y0181637D01*
D58*
X0120631Y0169875D03*
X0132506Y0178000D03*
X0171256Y0110500D03*
X0181256Y0110500D03*
X0296256Y0144250D03*
X0341256Y0125500D03*
X0376256Y0125500D03*
X0373756Y0111750D03*
X0366256Y0105500D03*
X0352506Y0101750D03*
X0300631Y0098937D03*
X0216256Y0060500D03*
X0202506Y0058000D03*
X0409068Y0111750D03*
X0447818Y0127997D03*
X0431256Y0025187D03*
D59*
X0462971Y0029503D02*
X0478509Y0029503D01*
X0478569Y0029505D01*
X0478629Y0029510D01*
X0478689Y0029519D01*
X0478748Y0029532D01*
X0478806Y0029548D01*
X0478863Y0029568D01*
X0478918Y0029591D01*
X0478972Y0029617D01*
X0479025Y0029647D01*
X0479075Y0029679D01*
X0479124Y0029715D01*
X0479170Y0029754D01*
X0479214Y0029795D01*
X0479255Y0029839D01*
X0479294Y0029885D01*
X0479330Y0029934D01*
X0479362Y0029984D01*
X0479392Y0030037D01*
X0479418Y0030091D01*
X0479441Y0030146D01*
X0479461Y0030203D01*
X0479477Y0030261D01*
X0479490Y0030320D01*
X0479499Y0030380D01*
X0479504Y0030440D01*
X0479506Y0030500D01*
X0476383Y0037377D02*
X0462971Y0037377D01*
X0476383Y0037377D02*
X0476494Y0037379D01*
X0476606Y0037385D01*
X0476717Y0037395D01*
X0476827Y0037409D01*
X0476937Y0037427D01*
X0477047Y0037448D01*
X0477155Y0037474D01*
X0477263Y0037504D01*
X0477369Y0037537D01*
X0477474Y0037574D01*
X0477578Y0037615D01*
X0477680Y0037659D01*
X0477781Y0037707D01*
X0477880Y0037759D01*
X0477977Y0037814D01*
X0478071Y0037873D01*
X0478164Y0037935D01*
X0478255Y0038000D01*
X0478343Y0038068D01*
X0478428Y0038140D01*
X0478511Y0038214D01*
X0478591Y0038292D01*
X0478669Y0038372D01*
X0478743Y0038455D01*
X0478815Y0038540D01*
X0478883Y0038628D01*
X0478948Y0038719D01*
X0479010Y0038812D01*
X0479069Y0038906D01*
X0479124Y0039003D01*
X0479176Y0039102D01*
X0479224Y0039203D01*
X0479268Y0039305D01*
X0479309Y0039409D01*
X0479346Y0039514D01*
X0479379Y0039620D01*
X0479409Y0039728D01*
X0479435Y0039836D01*
X0479456Y0039946D01*
X0479474Y0040056D01*
X0479488Y0040166D01*
X0479498Y0040277D01*
X0479504Y0040389D01*
X0479506Y0040500D01*
X0352506Y0101750D02*
X0350016Y0104240D01*
X0346256Y0104240D01*
X0341256Y0104240D01*
X0332693Y0104240D01*
X0353244Y0111750D02*
X0359494Y0105500D01*
X0366256Y0105500D01*
X0381256Y0105500D01*
X0386256Y0110500D01*
X0386256Y0113738D01*
X0409068Y0111750D02*
X0423240Y0111750D01*
X0432177Y0102813D01*
X0460751Y0102813D01*
X0459068Y0128372D02*
X0454443Y0128059D01*
X0447818Y0127997D01*
X0386256Y0125500D02*
X0376256Y0125500D01*
X0351256Y0125500D02*
X0341256Y0125500D01*
X0323175Y0144250D02*
X0316768Y0144250D01*
X0305744Y0144250D02*
X0296256Y0144250D01*
X0331443Y0147596D02*
X0331443Y0147990D01*
X0331443Y0147596D02*
X0338756Y0147596D01*
X0351728Y0147596D01*
X0351728Y0145500D01*
X0435053Y0173253D02*
X0459068Y0173253D01*
D60*
X0337506Y0058625D02*
X0337506Y0053000D01*
X0312280Y0053000D01*
X0352555Y0035185D02*
X0352865Y0034875D01*
X0363756Y0034875D01*
X0363756Y0030500D01*
X0356256Y0023000D01*
X0356256Y0020500D01*
X0363756Y0034875D02*
X0375006Y0034875D01*
X0388131Y0021750D01*
X0427754Y0021750D01*
X0431256Y0025187D01*
D61*
X0444693Y0017375D02*
X0476381Y0017375D01*
X0476493Y0017377D01*
X0476604Y0017383D01*
X0476715Y0017393D01*
X0476826Y0017407D01*
X0476936Y0017425D01*
X0477045Y0017446D01*
X0477154Y0017472D01*
X0477261Y0017502D01*
X0477368Y0017535D01*
X0477473Y0017572D01*
X0477577Y0017613D01*
X0477679Y0017657D01*
X0477780Y0017706D01*
X0477879Y0017757D01*
X0477976Y0017812D01*
X0478071Y0017871D01*
X0478163Y0017933D01*
X0478254Y0017998D01*
X0478342Y0018067D01*
X0478427Y0018138D01*
X0478510Y0018213D01*
X0478591Y0018290D01*
X0478668Y0018371D01*
X0478743Y0018454D01*
X0478814Y0018539D01*
X0478883Y0018627D01*
X0478948Y0018718D01*
X0479010Y0018810D01*
X0479069Y0018905D01*
X0479124Y0019002D01*
X0479175Y0019101D01*
X0479224Y0019202D01*
X0479268Y0019304D01*
X0479309Y0019408D01*
X0479346Y0019513D01*
X0479379Y0019620D01*
X0479409Y0019727D01*
X0479435Y0019836D01*
X0479456Y0019945D01*
X0479474Y0020055D01*
X0479488Y0020166D01*
X0479498Y0020277D01*
X0479504Y0020388D01*
X0479506Y0020500D01*
X0462971Y0037377D02*
X0462969Y0037407D01*
X0462964Y0037437D01*
X0462955Y0037465D01*
X0462942Y0037493D01*
X0462927Y0037518D01*
X0462908Y0037542D01*
X0462887Y0037563D01*
X0462863Y0037582D01*
X0462838Y0037597D01*
X0462810Y0037610D01*
X0462782Y0037619D01*
X0462752Y0037624D01*
X0462722Y0037626D01*
X0442132Y0037626D01*
X0320518Y0093000D02*
X0320518Y0100500D01*
X0324425Y0100500D01*
X0309494Y0098937D02*
X0309494Y0093000D01*
X0309494Y0098937D02*
X0300631Y0098937D01*
X0216256Y0060500D02*
X0181256Y0095500D01*
X0181256Y0110500D01*
X0171256Y0110500D02*
X0171256Y0089250D01*
X0202506Y0058000D01*
X0324381Y0155052D02*
X0331443Y0147990D01*
X0324381Y0155052D02*
X0324381Y0172103D01*
X0201256Y0172103D01*
X0122859Y0172103D01*
X0120631Y0169875D01*
X0132506Y0178000D02*
X0134853Y0177528D01*
X0400006Y0177528D01*
X0400006Y0165766D01*
X0400272Y0165500D01*
X0426621Y0139151D01*
X0426621Y0115865D01*
X0431799Y0110687D01*
X0460751Y0110687D01*
X0435053Y0173253D02*
X0437653Y0177528D01*
X0400006Y0177528D01*
D62*
X0331443Y0147990D02*
X0331246Y0147990D01*
X0327506Y0144250D01*
X0327506Y0135096D01*
X0328131Y0135409D01*
X0310631Y0135409D01*
X0319381Y0135409D01*
X0319381Y0128716D02*
X0319381Y0123328D01*
X0328131Y0123328D02*
X0328131Y0128716D01*
X0310631Y0128716D02*
X0310631Y0123328D01*
X0331443Y0140510D02*
X0331443Y0140904D01*
X0336256Y0140904D01*
X0338756Y0140904D01*
X0366256Y0111750D02*
X0373756Y0111750D01*
X0402102Y0111750D02*
X0409068Y0111750D01*
X0403916Y0084622D02*
X0442132Y0084622D01*
X0442132Y0085500D01*
X0431256Y0061000D02*
X0431256Y0060500D01*
X0431256Y0061000D02*
X0462971Y0061000D01*
X0442132Y0037626D02*
X0423443Y0037626D01*
X0416256Y0030500D01*
X0403916Y0030500D01*
X0403916Y0029503D01*
X0405350Y0030500D01*
X0389957Y0030500D01*
X0386256Y0030500D01*
X0381256Y0035500D01*
X0381256Y0039161D01*
X0381256Y0040500D01*
X0362506Y0040500D01*
X0362506Y0065500D01*
X0352555Y0065500D01*
X0381256Y0052154D02*
X0381256Y0040500D01*
X0381256Y0039161D02*
X0389957Y0039161D01*
X0403916Y0029503D02*
X0403930Y0029571D01*
X0403948Y0029638D01*
X0403969Y0029703D01*
X0403995Y0029768D01*
X0404024Y0029831D01*
X0404056Y0029892D01*
X0404092Y0029951D01*
X0404131Y0030009D01*
X0404173Y0030064D01*
X0404218Y0030116D01*
X0404266Y0030166D01*
X0404317Y0030213D01*
X0404371Y0030257D01*
X0404426Y0030298D01*
X0404484Y0030336D01*
X0404544Y0030371D01*
X0404606Y0030402D01*
X0404670Y0030430D01*
X0404735Y0030454D01*
X0404801Y0030474D01*
X0404868Y0030491D01*
X0404936Y0030504D01*
X0405005Y0030513D01*
X0405074Y0030518D01*
X0405143Y0030519D01*
X0405213Y0030516D01*
X0405281Y0030510D01*
X0405350Y0030499D01*
X0431256Y0025187D02*
X0431256Y0017779D01*
X0431659Y0017375D01*
X0438352Y0017375D02*
X0444693Y0017375D01*
X0389957Y0052154D02*
X0381256Y0052154D01*
X0340006Y0097154D02*
X0333087Y0097154D01*
X0333048Y0097152D01*
X0333010Y0097146D01*
X0332973Y0097137D01*
X0332936Y0097124D01*
X0332901Y0097107D01*
X0332868Y0097088D01*
X0332837Y0097065D01*
X0332808Y0097039D01*
X0332782Y0097010D01*
X0332759Y0096979D01*
X0332740Y0096946D01*
X0332723Y0096911D01*
X0332710Y0096874D01*
X0332701Y0096837D01*
X0332695Y0096799D01*
X0332693Y0096760D01*
X0340006Y0103846D02*
X0340008Y0103885D01*
X0340014Y0103923D01*
X0340023Y0103960D01*
X0340036Y0103997D01*
X0340053Y0104032D01*
X0340072Y0104065D01*
X0340095Y0104096D01*
X0340121Y0104125D01*
X0340150Y0104151D01*
X0340181Y0104174D01*
X0340214Y0104193D01*
X0340249Y0104210D01*
X0340286Y0104223D01*
X0340323Y0104232D01*
X0340361Y0104238D01*
X0340400Y0104240D01*
X0341256Y0104240D01*
X0231034Y0147375D02*
X0219381Y0147375D01*
X0226256Y0140500D01*
X0219381Y0147375D02*
X0201281Y0165475D01*
X0201281Y0167630D01*
X0201256Y0167656D01*
X0201256Y0172103D01*
X0196138Y0165500D02*
X0196138Y0165382D01*
X0207102Y0143000D02*
X0208352Y0142980D01*
X0200409Y0118000D02*
X0200799Y0117611D01*
X0110006Y0141750D02*
X0110006Y0149029D01*
X0108756Y0143000D02*
X0075943Y0143000D01*
X0070006Y0148938D01*
X0061256Y0148938D01*
X0060006Y0148846D01*
X0050813Y0148846D01*
X0050631Y0147154D01*
X0050631Y0153625D02*
X0050631Y0153846D01*
X0050631Y0154250D01*
X0006256Y0154250D01*
X0006256Y0101425D01*
X0029199Y0101425D01*
X0023564Y0101425D01*
X0023564Y0125382D01*
X0073956Y0148512D02*
X0076768Y0145700D01*
X0080744Y0145700D01*
X0085544Y0150500D01*
X0088756Y0150500D01*
X0083556Y0158512D02*
X0078756Y0153712D01*
X0078756Y0150500D01*
X0073956Y0148512D02*
X0073956Y0170300D01*
X0068756Y0175500D01*
X0078756Y0175500D02*
X0078756Y0167288D01*
X0083556Y0162488D01*
X0083556Y0158512D01*
X0088756Y0160500D02*
X0088756Y0175500D01*
X0104381Y0181125D02*
X0052506Y0181125D01*
X0052506Y0169875D01*
X0070006Y0169875D01*
X0070006Y0153625D01*
X0050631Y0153625D01*
X0098756Y0160500D02*
X0110006Y0160500D01*
X0110006Y0155721D01*
X0110006Y0160500D02*
X0110006Y0175500D01*
X0108756Y0175500D01*
X0108756Y0176750D01*
X0104381Y0181125D01*
X0108756Y0143000D02*
X0110006Y0141750D01*
X0030006Y0100500D02*
X0030006Y0089220D01*
X0039041Y0089220D01*
X0030006Y0089220D02*
X0030006Y0049457D01*
X0030006Y0038512D01*
X0030587Y0038512D01*
X0046925Y0038512D01*
X0047663Y0038625D01*
X0061256Y0038625D01*
X0061256Y0025500D01*
D63*
X0442132Y0037626D03*
X0444693Y0017375D03*
D64*
X0306681Y0144250D02*
X0305744Y0144250D01*
X0336748Y0165500D02*
X0342692Y0159557D01*
X0366769Y0159557D01*
X0372713Y0165500D01*
X0336748Y0165500D02*
X0331374Y0165500D01*
D65*
X0480318Y0178312D03*
X0010943Y0178312D03*
X0011256Y0020500D03*
M02*
