G75*
%MOIN*%
%OFA0B0*%
%FSLAX25Y25*%
%IPPOS*%
%LPD*%
%AMOC8*
5,1,8,0,0,1.08239X$1,22.5*
%
%ADD10R,0.01102X0.01772*%
%ADD11R,0.11230X0.06899*%
%ADD12R,0.04931X0.04537*%
%ADD13R,0.04537X0.04931*%
%ADD14C,0.01361*%
%ADD15R,0.06899X0.07687*%
%ADD16R,0.02962X0.09261*%
%ADD17C,0.07000*%
%ADD18C,0.08000*%
%ADD19R,0.07687X0.07687*%
%ADD20C,0.07687*%
%ADD21R,0.06112X0.01978*%
%ADD22R,0.08080X0.07687*%
%ADD23R,0.08080X0.08080*%
%ADD24R,0.18710X0.04537*%
%ADD25R,0.13986X0.06899*%
%ADD26R,0.06506X0.14773*%
%ADD27R,0.04143X0.03750*%
%ADD28R,0.03750X0.04143*%
%ADD29R,0.05324X0.02962*%
%ADD30R,0.08080X0.06112*%
%ADD31R,0.06112X0.07687*%
%ADD32R,0.06506X0.03356*%
%ADD33R,0.01584X0.02569*%
%ADD34R,0.10049X0.03907*%
%ADD35R,0.05718X0.08080*%
%ADD36R,0.07687X0.03356*%
%ADD37R,0.01584X0.03356*%
%ADD38R,0.03356X0.01584*%
%ADD39R,0.21072X0.13198*%
%ADD40R,0.02000X0.03000*%
%ADD41R,0.06506X0.01702*%
%ADD42R,0.01702X0.06506*%
%ADD43R,0.12411X0.05324*%
%ADD44R,0.01387X0.03946*%
%ADD45R,0.03946X0.01387*%
%ADD46R,0.11033X0.11033*%
%ADD47R,0.16600X0.06600*%
%ADD48R,0.16600X0.05600*%
%ADD49R,0.11624X0.10049*%
%ADD50C,0.08600*%
%ADD51R,0.04734X0.03159*%
%ADD52R,0.04537X0.08474*%
%ADD53OC8,0.04169*%
%ADD54OC8,0.06506*%
%ADD55OC8,0.05915*%
%ADD56OC8,0.19350*%
D10*
X0113284Y0111976D03*
D11*
X0351119Y0113738D03*
X0351119Y0124762D03*
X0386119Y0124762D03*
X0386119Y0113738D03*
D12*
X0395272Y0111750D03*
X0401965Y0111750D03*
X0411119Y0118404D03*
X0419869Y0118404D03*
X0419869Y0125096D03*
X0411119Y0125096D03*
X0407369Y0137154D03*
X0407369Y0143846D03*
X0373619Y0143846D03*
X0373619Y0137154D03*
X0338619Y0140904D03*
X0327994Y0135409D03*
X0319244Y0135409D03*
X0310494Y0135409D03*
X0310494Y0128716D03*
X0319244Y0128716D03*
X0327994Y0128716D03*
X0360272Y0111750D03*
X0366965Y0111750D03*
X0339869Y0103846D03*
X0339869Y0097154D03*
X0296744Y0081971D03*
X0287994Y0081971D03*
X0287994Y0075279D03*
X0296744Y0075279D03*
X0366119Y0072154D03*
X0376119Y0072154D03*
X0376119Y0078846D03*
X0366119Y0078846D03*
X0206965Y0118000D03*
X0200272Y0118000D03*
X0230897Y0140500D03*
X0237590Y0140500D03*
X0237590Y0147375D03*
X0230897Y0147375D03*
X0206965Y0143000D03*
X0200272Y0143000D03*
X0102369Y0126971D03*
X0092369Y0126971D03*
X0092369Y0120279D03*
X0102369Y0120279D03*
X0086119Y0114471D03*
X0072369Y0119654D03*
X0061119Y0119654D03*
X0061119Y0126346D03*
X0072369Y0126346D03*
X0059869Y0142154D03*
X0059869Y0148846D03*
X0056119Y0159029D03*
X0056119Y0165721D03*
X0086119Y0107779D03*
X0338619Y0147596D03*
X0431522Y0017375D03*
X0438215Y0017375D03*
D13*
X0285090Y0104250D03*
X0278397Y0104250D03*
X0270715Y0126125D03*
X0264022Y0126125D03*
X0216744Y0114471D03*
X0216744Y0107779D03*
X0133215Y0136750D03*
X0126522Y0136750D03*
X0120715Y0136750D03*
X0114022Y0136750D03*
X0116522Y0148000D03*
X0123215Y0148000D03*
X0129022Y0148000D03*
X0135715Y0148000D03*
X0109869Y0149029D03*
X0109869Y0155721D03*
X0073840Y0138625D03*
X0067147Y0138625D03*
X0050494Y0147154D03*
X0050494Y0153846D03*
X0039465Y0130500D03*
X0032772Y0130500D03*
X0032772Y0120500D03*
X0039465Y0120500D03*
X0112369Y0073846D03*
X0121119Y0073846D03*
X0131119Y0073846D03*
X0139869Y0073846D03*
X0139869Y0067154D03*
X0131119Y0067154D03*
X0121119Y0067154D03*
X0112369Y0067154D03*
X0103619Y0067596D03*
X0103619Y0060904D03*
X0148619Y0060279D03*
X0148619Y0066971D03*
X0039465Y0016125D03*
X0032772Y0016125D03*
D14*
X0308906Y0118010D02*
X0312082Y0118010D01*
X0312082Y0114834D01*
X0308906Y0114834D01*
X0308906Y0118010D01*
X0308906Y0116194D02*
X0312082Y0116194D01*
X0312082Y0117554D02*
X0308906Y0117554D01*
X0317656Y0118010D02*
X0320832Y0118010D01*
X0320832Y0114834D01*
X0317656Y0114834D01*
X0317656Y0118010D01*
X0317656Y0116194D02*
X0320832Y0116194D01*
X0320832Y0117554D02*
X0317656Y0117554D01*
X0326406Y0118010D02*
X0329582Y0118010D01*
X0329582Y0114834D01*
X0326406Y0114834D01*
X0326406Y0118010D01*
X0326406Y0116194D02*
X0329582Y0116194D01*
X0329582Y0117554D02*
X0326406Y0117554D01*
X0326406Y0124916D02*
X0329582Y0124916D01*
X0329582Y0121740D01*
X0326406Y0121740D01*
X0326406Y0124916D01*
X0326406Y0123100D02*
X0329582Y0123100D01*
X0329582Y0124460D02*
X0326406Y0124460D01*
X0320832Y0124916D02*
X0317656Y0124916D01*
X0320832Y0124916D02*
X0320832Y0121740D01*
X0317656Y0121740D01*
X0317656Y0124916D01*
X0317656Y0123100D02*
X0320832Y0123100D01*
X0320832Y0124460D02*
X0317656Y0124460D01*
X0312082Y0124916D02*
X0308906Y0124916D01*
X0312082Y0124916D02*
X0312082Y0121740D01*
X0308906Y0121740D01*
X0308906Y0124916D01*
X0308906Y0123100D02*
X0312082Y0123100D01*
X0312082Y0124460D02*
X0308906Y0124460D01*
D15*
X0305607Y0144250D03*
X0316631Y0144250D03*
X0320381Y0093000D03*
X0309357Y0093000D03*
D16*
X0278619Y0065736D03*
X0273619Y0065736D03*
X0268619Y0065736D03*
X0263619Y0065736D03*
X0263619Y0045264D03*
X0268619Y0045264D03*
X0273619Y0045264D03*
X0278619Y0045264D03*
D17*
X0098619Y0150500D03*
X0088619Y0150500D03*
X0078619Y0150500D03*
X0078619Y0160500D03*
X0088619Y0160500D03*
X0098619Y0160500D03*
D18*
X0098619Y0175500D03*
X0108619Y0175500D03*
X0088619Y0175500D03*
X0078619Y0175500D03*
X0068619Y0175500D03*
X0058619Y0175500D03*
X0346119Y0020500D03*
X0356119Y0020500D03*
X0366119Y0020500D03*
X0376119Y0020500D03*
D19*
X0206119Y0025500D03*
X0061119Y0025500D03*
X0251119Y0165500D03*
X0276119Y0165500D03*
D20*
X0289898Y0165500D03*
X0303678Y0165500D03*
X0317457Y0165500D03*
X0331237Y0165500D03*
X0345016Y0165500D03*
X0358796Y0165500D03*
X0372575Y0165500D03*
X0386355Y0165500D03*
X0400134Y0165500D03*
X0237339Y0165500D03*
X0223560Y0165500D03*
X0209780Y0165500D03*
X0196001Y0165500D03*
X0182221Y0165500D03*
X0168442Y0165500D03*
X0154662Y0165500D03*
X0140883Y0165500D03*
X0127103Y0165500D03*
X0130016Y0025500D03*
X0116237Y0025500D03*
X0102457Y0025500D03*
X0088678Y0025500D03*
X0074898Y0025500D03*
X0143796Y0025500D03*
X0157575Y0025500D03*
X0171355Y0025500D03*
X0185134Y0025500D03*
X0219898Y0025500D03*
X0233678Y0025500D03*
X0247457Y0025500D03*
X0261237Y0025500D03*
X0275016Y0025500D03*
X0288796Y0025500D03*
X0302575Y0025500D03*
X0316355Y0025500D03*
X0330134Y0025500D03*
D21*
X0023427Y0125382D03*
X0023427Y0127941D03*
X0023427Y0130500D03*
X0023427Y0133059D03*
X0023427Y0135618D03*
D22*
X0012994Y0146248D03*
X0012994Y0114752D03*
D23*
X0012994Y0125500D03*
X0012994Y0135500D03*
D24*
X0460614Y0110687D03*
X0460614Y0102813D03*
D25*
X0481087Y0093364D03*
X0481087Y0120136D03*
D26*
X0395646Y0140500D03*
X0386591Y0140500D03*
X0360646Y0140500D03*
X0351591Y0140500D03*
D27*
X0331306Y0140510D03*
X0323038Y0144250D03*
X0331306Y0147990D03*
X0332556Y0104240D03*
X0324288Y0100500D03*
X0332556Y0096760D03*
X0101699Y0111125D03*
X0093432Y0107385D03*
X0093432Y0114865D03*
X0079057Y0119885D03*
X0087324Y0123625D03*
X0079057Y0127365D03*
D28*
X0064859Y0114437D03*
X0057379Y0114437D03*
X0061119Y0106169D03*
D29*
X0290095Y0063000D03*
X0290095Y0058000D03*
X0290095Y0053000D03*
X0290095Y0048000D03*
X0312142Y0048000D03*
X0312142Y0053000D03*
X0312142Y0058000D03*
X0312142Y0063000D03*
D30*
X0029062Y0101425D03*
X0025518Y0049457D03*
D31*
X0080636Y0071504D03*
X0080636Y0095126D03*
D32*
X0040479Y0093551D03*
X0040479Y0097882D03*
X0038904Y0089220D03*
X0040479Y0084890D03*
X0038904Y0080559D03*
X0040479Y0076228D03*
X0042054Y0071898D03*
X0040479Y0067567D03*
D33*
X0360932Y0119260D03*
X0362900Y0119260D03*
X0364869Y0119260D03*
X0366837Y0119260D03*
X0368806Y0119260D03*
X0368806Y0126740D03*
X0366837Y0126740D03*
X0364869Y0126740D03*
X0362900Y0126740D03*
X0360932Y0126740D03*
X0395932Y0126740D03*
X0397900Y0126740D03*
X0399869Y0126740D03*
X0401837Y0126740D03*
X0403806Y0126740D03*
X0403806Y0119260D03*
X0401837Y0119260D03*
X0399869Y0119260D03*
X0397900Y0119260D03*
X0395932Y0119260D03*
D34*
X0399869Y0123000D03*
X0364869Y0123000D03*
D35*
X0215696Y0124201D03*
X0194042Y0124201D03*
X0194042Y0136799D03*
X0215696Y0136799D03*
D36*
X0352418Y0065500D03*
X0352418Y0061169D03*
X0352418Y0056839D03*
X0352418Y0052508D03*
X0352418Y0048177D03*
X0352418Y0043846D03*
X0352418Y0039516D03*
X0352418Y0035185D03*
X0352418Y0030854D03*
X0389820Y0030500D03*
X0389820Y0034831D03*
X0389820Y0039161D03*
X0389820Y0043492D03*
X0389820Y0047823D03*
X0389820Y0052154D03*
X0389820Y0056484D03*
X0389820Y0060815D03*
X0389820Y0065146D03*
D37*
X0136946Y0111051D03*
X0134977Y0111051D03*
X0133009Y0111051D03*
X0131040Y0111051D03*
X0129071Y0111051D03*
X0127103Y0111051D03*
X0125134Y0111051D03*
X0123166Y0111051D03*
X0121197Y0111051D03*
X0119229Y0111051D03*
X0117260Y0111051D03*
X0115292Y0111051D03*
X0115292Y0129949D03*
X0117260Y0129949D03*
X0119229Y0129949D03*
X0121197Y0129949D03*
X0123166Y0129949D03*
X0125134Y0129949D03*
X0127103Y0129949D03*
X0129071Y0129949D03*
X0131040Y0129949D03*
X0133009Y0129949D03*
X0134977Y0129949D03*
X0136946Y0129949D03*
D38*
X0139505Y0126406D03*
X0139505Y0124437D03*
X0139505Y0122469D03*
X0139505Y0120500D03*
X0139505Y0118531D03*
X0139505Y0116563D03*
X0139505Y0114594D03*
X0112733Y0114594D03*
X0112733Y0116563D03*
X0112733Y0118531D03*
X0112733Y0120500D03*
X0112733Y0122469D03*
X0112733Y0124437D03*
X0112733Y0126406D03*
D39*
X0126119Y0120500D03*
D40*
X0113319Y0112000D03*
D41*
X0224386Y0112547D03*
X0224386Y0110579D03*
X0224386Y0108610D03*
X0224386Y0106642D03*
X0224386Y0104673D03*
X0224386Y0114516D03*
X0224386Y0116484D03*
X0224386Y0118453D03*
X0224386Y0120421D03*
X0224386Y0122390D03*
X0224386Y0124358D03*
X0224386Y0126327D03*
X0257851Y0126327D03*
X0257851Y0124358D03*
X0257851Y0122390D03*
X0257851Y0120421D03*
X0257851Y0118453D03*
X0257851Y0116484D03*
X0257851Y0114516D03*
X0257851Y0112547D03*
X0257851Y0110579D03*
X0257851Y0108610D03*
X0257851Y0106642D03*
X0257851Y0104673D03*
D42*
X0251946Y0098768D03*
X0249977Y0098768D03*
X0248009Y0098768D03*
X0246040Y0098768D03*
X0244071Y0098768D03*
X0242103Y0098768D03*
X0240134Y0098768D03*
X0238166Y0098768D03*
X0236197Y0098768D03*
X0234229Y0098768D03*
X0232260Y0098768D03*
X0230292Y0098768D03*
X0230292Y0132232D03*
X0232260Y0132232D03*
X0234229Y0132232D03*
X0236197Y0132232D03*
X0238166Y0132232D03*
X0240134Y0132232D03*
X0242103Y0132232D03*
X0244071Y0132232D03*
X0246040Y0132232D03*
X0248009Y0132232D03*
X0249977Y0132232D03*
X0251946Y0132232D03*
D43*
X0403779Y0084622D03*
X0403779Y0076748D03*
X0403779Y0068874D03*
X0403779Y0061000D03*
X0403779Y0053125D03*
X0403779Y0045251D03*
X0403779Y0037377D03*
X0403779Y0029503D03*
X0462834Y0029503D03*
X0462834Y0037377D03*
X0462834Y0045251D03*
X0462834Y0053125D03*
X0462834Y0061000D03*
X0462834Y0068874D03*
X0462834Y0076748D03*
X0462834Y0084622D03*
D44*
X0290843Y0112724D03*
X0289268Y0112724D03*
X0287694Y0112724D03*
X0286119Y0112724D03*
X0284544Y0112724D03*
X0282969Y0112724D03*
X0281394Y0112724D03*
X0281394Y0128276D03*
X0282969Y0128276D03*
X0284544Y0128276D03*
X0286119Y0128276D03*
X0287694Y0128276D03*
X0289268Y0128276D03*
X0290843Y0128276D03*
D45*
X0293894Y0125224D03*
X0293894Y0123650D03*
X0293894Y0122075D03*
X0293894Y0120500D03*
X0293894Y0118925D03*
X0293894Y0117350D03*
X0293894Y0115776D03*
X0278343Y0115776D03*
X0278343Y0117350D03*
X0278343Y0118925D03*
X0278343Y0120500D03*
X0278343Y0122075D03*
X0278343Y0123650D03*
X0278343Y0125224D03*
D46*
X0286119Y0120500D03*
D47*
X0479369Y0040500D03*
X0479369Y0020500D03*
D48*
X0479369Y0030500D03*
D49*
X0458931Y0128372D03*
X0434915Y0128372D03*
X0434915Y0173253D03*
X0458931Y0173253D03*
D50*
X0458931Y0150813D03*
X0440931Y0150813D03*
D51*
X0043038Y0170613D03*
X0026699Y0170613D03*
X0026699Y0181637D03*
X0043038Y0181637D03*
X0046788Y0038512D03*
X0030449Y0038512D03*
X0030449Y0027488D03*
X0046788Y0027488D03*
D52*
X0106119Y0044004D03*
X0126119Y0044004D03*
X0146119Y0044004D03*
X0156119Y0056996D03*
X0136119Y0056996D03*
X0116119Y0056996D03*
X0126119Y0084004D03*
X0146119Y0084004D03*
X0156119Y0096996D03*
X0136119Y0096996D03*
X0116119Y0096996D03*
X0106119Y0084004D03*
D53*
X0026119Y0016125D03*
X0046119Y0016125D03*
X0091619Y0070500D03*
X0086119Y0075500D03*
X0086119Y0080500D03*
X0088619Y0084250D03*
X0095494Y0086750D03*
X0091744Y0089875D03*
X0102369Y0096125D03*
X0099256Y0099816D03*
X0056119Y0105500D03*
X0066744Y0125500D03*
X0096431Y0135500D03*
X0104244Y0132375D03*
X0102369Y0139250D03*
X0109869Y0141750D03*
X0069869Y0148938D03*
X0066119Y0160500D03*
X0113619Y0161125D03*
X0214869Y0156750D03*
X0215258Y0161530D03*
X0253206Y0143025D03*
X0251744Y0138625D03*
X0245494Y0139563D03*
X0226119Y0140500D03*
X0266589Y0138470D03*
X0267369Y0143000D03*
X0269869Y0146750D03*
X0274869Y0146125D03*
X0286119Y0139250D03*
X0281119Y0135500D03*
X0287994Y0134250D03*
X0278619Y0131750D03*
X0275494Y0128625D03*
X0264647Y0124875D03*
X0267994Y0121125D03*
X0252056Y0125187D03*
X0244250Y0126437D03*
X0238619Y0124250D03*
X0236916Y0119250D03*
X0247056Y0116125D03*
X0247994Y0120500D03*
X0230041Y0126437D03*
X0193619Y0110500D03*
X0166119Y0115500D03*
X0161226Y0115607D03*
X0204556Y0093937D03*
X0245462Y0083313D03*
X0248728Y0086625D03*
X0256119Y0080500D03*
X0241747Y0076817D03*
X0245494Y0074250D03*
X0251119Y0074131D03*
X0256744Y0073183D03*
X0265494Y0074250D03*
X0243619Y0065500D03*
X0249869Y0061750D03*
X0254869Y0061750D03*
X0236119Y0065500D03*
X0231119Y0075500D03*
X0226119Y0075500D03*
X0256119Y0093000D03*
X0255761Y0098437D03*
X0247994Y0104875D03*
X0249869Y0109250D03*
X0267994Y0110187D03*
X0277994Y0111437D03*
X0271372Y0105500D03*
X0279022Y0097687D03*
X0291744Y0098000D03*
X0312994Y0103625D03*
X0320806Y0105187D03*
X0300494Y0116750D03*
X0305494Y0121750D03*
X0301744Y0124816D03*
X0298619Y0128000D03*
X0294244Y0131125D03*
X0304244Y0135500D03*
X0334695Y0135500D03*
X0301119Y0155419D03*
X0386119Y0183000D03*
X0336119Y0088937D03*
X0386119Y0085684D03*
X0393963Y0085500D03*
X0392369Y0080500D03*
X0390806Y0075813D03*
X0416119Y0060500D03*
X0431119Y0060500D03*
X0362369Y0040500D03*
X0337369Y0058625D03*
X0299869Y0054875D03*
X0279869Y0086437D03*
X0147994Y0072375D03*
X0105494Y0072375D03*
X0038904Y0080559D03*
X0441995Y0085500D03*
D54*
X0408931Y0111750D03*
X0373619Y0111750D03*
X0366119Y0105500D03*
X0352369Y0101750D03*
X0300494Y0098937D03*
X0341119Y0125500D03*
X0376119Y0125500D03*
X0447681Y0127997D03*
X0296119Y0144250D03*
X0181119Y0110500D03*
X0171119Y0110500D03*
X0216119Y0060500D03*
X0202369Y0058000D03*
X0431119Y0025187D03*
X0120494Y0169875D03*
X0132369Y0178000D03*
D55*
X0441995Y0037626D03*
X0444556Y0017375D03*
D56*
X0011119Y0020500D03*
X0010806Y0178312D03*
X0480181Y0178312D03*
M02*
