%
M48
M72
T01C0.01969
T02C0.03543
T03C0.03937
T04C0.04000
T05C0.04724
T06C0.08000
T07C0.12500
%
T01
X26119Y16125
X46119Y16125
X91619Y70500
X86119Y75500
X86119Y80500
X88619Y84250
X95494Y86750
X91744Y89875
X102369Y96125
X99256Y99816
X56119Y105500
X66744Y125500
X96431Y135500
X104244Y132375
X102369Y139250
X109869Y141750
X69869Y148938
X66119Y160500
X113619Y161125
X214869Y156750
X215258Y161530
X253206Y143025
X251744Y138625
X245494Y139563
X226119Y140500
X266589Y138470
X267369Y143000
X269869Y146750
X274869Y146125
X286119Y139250
X281119Y135500
X287994Y134250
X278619Y131750
X275494Y128625
X264647Y124875
X267994Y121125
X252056Y125187
X244250Y126437
X238619Y124250
X236916Y119250
X247056Y116125
X247994Y120500
X230041Y126437
X193619Y110500
X166119Y115500
X161226Y115607
X204556Y93937
X245462Y83313
X248728Y86625
X256119Y80500
X241747Y76817
X245494Y74250
X251119Y74131
X256744Y73183
X265494Y74250
X243619Y65500
X249869Y61750
X254869Y61750
X236119Y65500
X231119Y75500
X226119Y75500
X256119Y93000
X255761Y98437
X247994Y104875
X249869Y109250
X267994Y110187
X277994Y111437
X271372Y105500
X279022Y97687
X291744Y98000
X312994Y103625
X320806Y105187
X300494Y116750
X305494Y121750
X301744Y124816
X298619Y128000
X294244Y131125
X304244Y135500
X334695Y135500
X301119Y155419
X386119Y183000
X336119Y88937
X386119Y85684
X393963Y85500
X392369Y80500
X390806Y75813
X416119Y60500
X431119Y60500
X362369Y40500
X337369Y58625
X299869Y54875
X279869Y86437
X147994Y72375
X105494Y72375
X38904Y80559
X441995Y85500
T02
X441995Y37626
X444556Y17375
X98619Y150500
X88619Y150500
X78619Y150500
X78619Y160500
X88619Y160500
X98619Y160500
T03
X120494Y169875
X132369Y178000
X296119Y144250
X341119Y125500
X376119Y125500
X373619Y111750
X366119Y105500
X352369Y101750
X300494Y98937
X408931Y111750
X447681Y127997
X216119Y60500
X202369Y58000
X181119Y110500
X171119Y110500
X431119Y25187
T04
X376119Y20500
X366119Y20500
X356119Y20500
X346119Y20500
X108619Y175500
X98619Y175500
X88619Y175500
X78619Y175500
X68619Y175500
X58619Y175500
T05
X127103Y165500
X140883Y165500
X154662Y165500
X168442Y165500
X182221Y165500
X196001Y165500
X209780Y165500
X223560Y165500
X237339Y165500
X251119Y165500
X276119Y165500
X289898Y165500
X303678Y165500
X317457Y165500
X331237Y165500
X345016Y165500
X358796Y165500
X372575Y165500
X386355Y165500
X400134Y165500
X330134Y25500
X316355Y25500
X302575Y25500
X288796Y25500
X275016Y25500
X261237Y25500
X247457Y25500
X233678Y25500
X219898Y25500
X206119Y25500
X185134Y25500
X171355Y25500
X157575Y25500
X143796Y25500
X130016Y25500
X116237Y25500
X102457Y25500
X88678Y25500
X74898Y25500
X61119Y25500
T06
X440931Y150813
X458931Y150813
T07
X480181Y178312
X10806Y178312
X11119Y20500
M30
