G75*
%MOIN*%
%OFA0B0*%
%FSLAX25Y25*%
%IPPOS*%
%LPD*%
%AMOC8*
5,1,8,0,0,1.08239X$1,22.5*
%
%ADD10R,0.10600X0.20600*%
%ADD11C,0.40600*%
%ADD12C,0.07000*%
%ADD13C,0.08000*%
%ADD14R,0.07687X0.07687*%
%ADD15C,0.07687*%
%ADD16R,0.16600X0.06600*%
%ADD17C,0.08600*%
%ADD18OC8,0.04169*%
%ADD19OC8,0.06506*%
%ADD20OC8,0.05915*%
%ADD21OC8,0.19350*%
D10*
X0277369Y0058625D03*
X0337369Y0058625D03*
D11*
X0307369Y0058625D03*
D12*
X0098619Y0150500D03*
X0088619Y0150500D03*
X0078619Y0150500D03*
X0078619Y0160500D03*
X0088619Y0160500D03*
X0098619Y0160500D03*
D13*
X0098619Y0175500D03*
X0108619Y0175500D03*
X0088619Y0175500D03*
X0078619Y0175500D03*
X0068619Y0175500D03*
X0058619Y0175500D03*
X0346119Y0020500D03*
X0356119Y0020500D03*
X0366119Y0020500D03*
X0376119Y0020500D03*
D14*
X0206119Y0025500D03*
X0061119Y0025500D03*
X0251119Y0165500D03*
X0276119Y0165500D03*
D15*
X0289898Y0165500D03*
X0303678Y0165500D03*
X0317457Y0165500D03*
X0331237Y0165500D03*
X0345016Y0165500D03*
X0358796Y0165500D03*
X0372575Y0165500D03*
X0386355Y0165500D03*
X0400134Y0165500D03*
X0237339Y0165500D03*
X0223560Y0165500D03*
X0209780Y0165500D03*
X0196001Y0165500D03*
X0182221Y0165500D03*
X0168442Y0165500D03*
X0154662Y0165500D03*
X0140883Y0165500D03*
X0127103Y0165500D03*
X0130016Y0025500D03*
X0116237Y0025500D03*
X0102457Y0025500D03*
X0088678Y0025500D03*
X0074898Y0025500D03*
X0143796Y0025500D03*
X0157575Y0025500D03*
X0171355Y0025500D03*
X0185134Y0025500D03*
X0219898Y0025500D03*
X0233678Y0025500D03*
X0247457Y0025500D03*
X0261237Y0025500D03*
X0275016Y0025500D03*
X0288796Y0025500D03*
X0302575Y0025500D03*
X0316355Y0025500D03*
X0330134Y0025500D03*
D16*
X0479369Y0020500D03*
X0479369Y0040500D03*
D17*
X0458931Y0150813D03*
X0440931Y0150813D03*
D18*
X0026119Y0016125D03*
X0046119Y0016125D03*
X0091619Y0070500D03*
X0086119Y0075500D03*
X0086119Y0080500D03*
X0088619Y0084250D03*
X0095494Y0086750D03*
X0091744Y0089875D03*
X0102369Y0096125D03*
X0099256Y0099816D03*
X0056119Y0105500D03*
X0066744Y0125500D03*
X0096431Y0135500D03*
X0104244Y0132375D03*
X0102369Y0139250D03*
X0109869Y0141750D03*
X0069869Y0148938D03*
X0066119Y0160500D03*
X0113619Y0161125D03*
X0214869Y0156750D03*
X0215258Y0161530D03*
X0253206Y0143025D03*
X0251744Y0138625D03*
X0245494Y0139563D03*
X0226119Y0140500D03*
X0266589Y0138470D03*
X0267369Y0143000D03*
X0269869Y0146750D03*
X0274869Y0146125D03*
X0286119Y0139250D03*
X0281119Y0135500D03*
X0287994Y0134250D03*
X0278619Y0131750D03*
X0275494Y0128625D03*
X0264647Y0124875D03*
X0267994Y0121125D03*
X0252056Y0125187D03*
X0244250Y0126437D03*
X0238619Y0124250D03*
X0236916Y0119250D03*
X0247056Y0116125D03*
X0247994Y0120500D03*
X0230041Y0126437D03*
X0193619Y0110500D03*
X0166119Y0115500D03*
X0161226Y0115607D03*
X0204556Y0093937D03*
X0245462Y0083313D03*
X0248728Y0086625D03*
X0256119Y0080500D03*
X0241747Y0076817D03*
X0245494Y0074250D03*
X0251119Y0074131D03*
X0256744Y0073183D03*
X0265494Y0074250D03*
X0243619Y0065500D03*
X0249869Y0061750D03*
X0254869Y0061750D03*
X0236119Y0065500D03*
X0231119Y0075500D03*
X0226119Y0075500D03*
X0256119Y0093000D03*
X0255761Y0098437D03*
X0247994Y0104875D03*
X0249869Y0109250D03*
X0267994Y0110187D03*
X0277994Y0111437D03*
X0271372Y0105500D03*
X0279022Y0097687D03*
X0291744Y0098000D03*
X0312994Y0103625D03*
X0320806Y0105187D03*
X0300494Y0116750D03*
X0305494Y0121750D03*
X0301744Y0124816D03*
X0298619Y0128000D03*
X0294244Y0131125D03*
X0304244Y0135500D03*
X0334695Y0135500D03*
X0301119Y0155419D03*
X0386119Y0183000D03*
X0336119Y0088937D03*
X0386119Y0085684D03*
X0393963Y0085500D03*
X0392369Y0080500D03*
X0390806Y0075813D03*
X0416119Y0060500D03*
X0431119Y0060500D03*
X0362369Y0040500D03*
X0337369Y0058625D03*
X0299869Y0054875D03*
X0279869Y0086437D03*
X0147994Y0072375D03*
X0105494Y0072375D03*
X0038904Y0080559D03*
X0441995Y0085500D03*
D19*
X0408931Y0111750D03*
X0373619Y0111750D03*
X0366119Y0105500D03*
X0352369Y0101750D03*
X0300494Y0098937D03*
X0341119Y0125500D03*
X0376119Y0125500D03*
X0447681Y0127997D03*
X0296119Y0144250D03*
X0181119Y0110500D03*
X0171119Y0110500D03*
X0216119Y0060500D03*
X0202369Y0058000D03*
X0431119Y0025187D03*
X0120494Y0169875D03*
X0132369Y0178000D03*
D20*
X0441995Y0037626D03*
X0444556Y0017375D03*
D21*
X0011119Y0020500D03*
X0010806Y0178312D03*
X0480181Y0178312D03*
M02*
